<?xml version="1.0" standalone="no"?>
<!DOCTYPE svg PUBLIC "-//W3C//DTD SVG 20010904//EN"
 "http://www.w3.org/TR/2001/REC-SVG-20010904/DTD/svg10.dtd">
<svg version="1.0" xmlns="http://www.w3.org/2000/svg"
 width="640.000000pt" height="800.000000pt" viewBox="0 0 640.000000 800.000000"
 preserveAspectRatio="xMidYMid meet">

<g transform="translate(0.000000,800.000000) scale(0.100000,-0.100000)"
fill="#000000" stroke="none">
<path d="M0 4000 l0 -4000 945 0 c620 0 945 4 945 11 0 5 -17 9 -37 9 -130 -2
-255 2 -238 9 19 8 19 8 0 19 -11 6 -14 12 -8 12 9 0 7 6 -5 18 -19 21 -34 19
-25 -3 6 -18 -14 -45 -34 -45 -10 0 -13 9 -11 28 2 15 8 26 16 24 6 -1 12 4
12 12 0 8 4 16 9 18 5 2 11 37 13 78 3 65 1 75 -14 78 -10 2 -18 7 -18 12 0
10 25 36 39 42 5 1 25 37 46 78 21 41 48 85 61 97 13 12 24 32 24 44 0 40 -22
149 -30 149 -4 0 -5 19 -3 43 4 32 1 46 -11 56 -15 12 -14 16 7 35 13 12 26
29 29 38 5 11 23 19 55 23 121 15 137 35 41 49 -36 6 -52 11 -38 13 54 7 67
13 77 36 13 27 -1 52 -32 59 -12 3 1 8 30 12 28 4 59 11 70 16 l20 8 -20 7
c-11 4 -33 12 -48 17 l-28 11 21 19 c25 24 25 40 1 58 -16 11 -18 18 -9 33 7
13 7 22 -1 30 -6 6 -11 25 -11 42 0 18 -3 35 -7 39 -10 10 -14 32 -19 110 -2
38 -9 75 -15 82 -6 7 -13 38 -15 69 -3 37 -17 79 -39 123 -36 70 -45 122 -21
122 8 0 16 16 20 38 3 20 9 53 12 72 4 19 17 44 30 56 18 16 20 24 12 32 -12
12 -18 142 -7 142 4 0 12 -7 19 -15 18 -21 29 -19 42 10 6 14 18 25 25 25 19
0 15 66 -5 98 -9 14 -10 22 -3 22 6 0 11 4 11 10 0 5 -8 7 -18 4 -10 -3 -9 0
4 7 21 10 21 12 6 42 -25 49 -16 149 9 104 12 -20 68 -24 71 -4 0 6 2 17 3 22
2 6 3 16 4 24 1 10 4 11 14 2 15 -12 25 -3 68 61 13 21 28 38 32 38 5 0 5 4 2
10 -3 5 5 22 19 36 38 42 44 114 11 154 -7 8 -18 33 -25 55 -13 42 -44 74 -71
75 -31 0 -32 33 -3 57 15 12 31 20 36 17 4 -3 5 1 2 9 -2 7 -1 25 5 39 5 13 6
40 2 59 -6 28 -11 34 -34 34 -31 1 -40 8 -44 38 -9 60 -27 100 -57 129 -34 34
-95 105 -131 153 -11 15 -35 42 -52 61 -18 19 -33 39 -33 44 0 5 -18 14 -40
20 -21 6 -42 15 -45 21 -4 5 -16 7 -27 3 -14 -4 -19 -2 -16 7 8 24 -46 79 -72
72 -44 -12 -68 89 -29 128 26 26 10 49 -36 49 -42 0 -74 33 -58 59 23 37 3 42
-163 43 -87 1 -172 -1 -189 -5 -16 -4 -36 -3 -44 2 -11 7 -8 16 14 44 26 32
37 37 134 57 116 25 215 66 206 87 -2 8 4 22 15 33 11 11 17 20 12 20 -4 0 1
5 12 11 10 6 65 15 123 20 137 11 142 16 116 141 -6 25 -6 52 -2 60 5 7 6 58
3 113 -5 88 -3 109 19 180 14 44 30 105 37 135 7 30 18 73 26 94 12 35 12 43
-2 63 -25 39 -29 150 -9 231 9 39 13 77 9 84 -5 9 -1 8 11 -2 12 -10 16 -10
11 -2 -4 7 -9 31 -10 53 -3 39 -2 39 17 22 18 -16 20 -16 14 -1 -3 9 0 19 8
22 25 9 6 33 -24 31 -26 -1 -28 1 -21 24 4 16 14 26 26 27 31 0 64 27 64 50 0
12 22 72 50 134 27 61 57 135 66 163 17 55 48 97 71 97 7 0 13 5 13 10 0 6 6
10 13 10 25 0 57 46 72 105 15 55 51 113 103 162 33 33 59 13 79 -59 15 -54
19 -58 45 -58 43 0 66 16 73 52 4 18 18 46 31 61 22 26 26 35 23 53 0 4 5 11
13 15 10 7 10 9 1 9 -7 0 -12 10 -12 23 1 16 2 18 6 5 2 -10 8 -18 13 -18 4 0
7 8 5 18 -2 9 -4 17 -6 17 -1 0 -3 18 -5 40 -2 22 -7 74 -12 115 -6 46 -6 80
0 87 5 6 8 24 6 40 -2 21 -15 34 -55 58 -65 37 -72 52 -24 48 28 -2 32 -1 16
6 -18 8 -17 10 13 21 18 7 31 14 29 17 -3 2 -22 -3 -42 -12 -21 -8 -41 -13
-43 -10 -9 9 -11 36 -2 30 4 -3 13 1 19 9 6 7 31 21 56 31 25 9 45 21 45 26 0
5 -10 29 -22 52 -19 35 -22 58 -22 137 0 52 3 115 6 139 9 55 -8 95 -63 148
-39 38 -54 81 -23 69 8 -3 12 -2 9 3 -3 5 5 12 17 14 20 4 19 4 -4 6 -17 0
-28 7 -28 15 0 8 6 14 13 13 6 0 40 1 75 1 57 2 62 4 62 25 0 12 29 60 65 106
36 46 65 88 65 93 0 6 -9 21 -20 35 -17 21 -18 29 -8 41 11 13 11 14 0 8 -11
-7 -11 -4 -1 12 7 11 28 23 46 27 36 7 43 29 23 81 -6 15 -8 34 -5 43 4 10 14
-2 30 -37 13 -29 29 -52 35 -52 5 0 24 -13 41 -29 17 -17 45 -33 62 -37 18 -4
54 -26 82 -49 54 -45 108 -75 135 -75 16 0 18 12 16 109 0 60 2 113 6 117 5 4
16 0 26 -9 10 -10 21 -15 24 -12 2 3 10 -6 18 -19 11 -22 51 -42 73 -38 12 3
8 -8 -11 -36 -28 -40 -36 -60 -14 -33 15 18 21 21 25 10 5 -11 6 -11 6 1 -2
31 1 40 16 40 16 0 22 -18 33 -103 7 -57 8 -59 45 -72 21 -7 40 -15 42 -17 2
-2 11 -83 14 -140 1 -5 6 -8 12 -8 6 0 8 9 4 23 -6 21 -6 21 11 -3 23 -33 34
-40 62 -40 13 0 20 -4 17 -10 -4 -6 -11 -8 -16 -4 -6 3 -5 -3 3 -15 11 -19 13
-19 19 -4 4 13 7 9 12 -13 4 -21 12 -30 26 -31 19 -2 21 4 22 65 0 73 5 122
13 129 2 2 12 6 23 7 10 2 19 12 21 24 2 11 10 26 18 33 12 10 19 8 38 -10 21
-19 28 -21 68 -12 59 14 98 2 126 -39 23 -35 31 -123 12 -135 -6 -4 -8 -10 -5
-14 2 -5 -2 -21 -9 -37 -26 -52 -30 -84 -12 -84 9 0 21 11 26 24 10 27 30 36
75 32 44 -4 45 -4 45 -24 0 -29 89 -65 125 -51 42 16 48 2 14 -30 -12 -11 -18
-24 -15 -29 3 -6 -23 -31 -58 -56 -58 -41 -70 -57 -90 -119 -9 -29 11 -57 42
-57 52 0 68 -43 35 -90 -10 -14 -16 -25 -15 -25 2 0 1 -12 -3 -27 -4 -16 -11
-25 -16 -22 -5 3 -9 -2 -9 -10 0 -9 -4 -16 -10 -16 -5 0 -10 -4 -10 -9 0 -5
-5 -22 -10 -37 -6 -15 -13 -70 -15 -121 -3 -83 -7 -100 -41 -168 -21 -41 -46
-84 -56 -95 -10 -11 -14 -21 -8 -25 6 -3 10 -16 10 -29 0 -71 52 -114 64 -54
5 26 26 40 26 18 0 -20 18 -9 24 15 4 14 11 25 16 25 6 0 13 0 17 0 3 0 5 -31
4 -69 -3 -94 16 -131 65 -131 19 0 33 4 30 8 -6 10 80 36 93 28 5 -4 13 -28
17 -53 7 -46 22 -73 42 -73 5 0 30 -18 55 -41 26 -22 59 -42 74 -43 15 -2 29
-5 31 -6 1 -1 6 -3 11 -4 27 -3 17 -15 -17 -21 -74 -12 -98 -9 -136 20 -57 44
-160 76 -251 80 l-80 4 73 -9 c89 -10 114 -16 175 -42 46 -20 57 -39 26 -44
-7 -1 -23 -5 -34 -9 -19 -7 -19 -7 -1 7 17 13 16 15 -25 31 -59 22 -145 34
-135 19 7 -12 3 -13 -49 -17 -11 -1 -29 6 -40 14 -11 9 -17 12 -13 7 4 -5 3
-15 -3 -23 -9 -9 -8 -13 0 -14 6 -1 16 -3 21 -4 6 -1 18 -3 27 -4 9 0 13 -4
10 -8 -4 -3 -41 -8 -82 -9 -41 -2 -79 -5 -84 -9 -5 -3 -12 -1 -16 4 -3 5 3 15
12 21 16 10 16 11 -2 5 -56 -18 -72 -17 -78 4 -3 13 -13 21 -25 21 -12 0 -23
4 -26 9 -4 5 2 7 13 4 10 -3 22 0 25 6 5 7 1 8 -10 4 -14 -5 -16 -3 -11 10 6
15 4 16 -16 6 -20 -11 -21 -11 -8 5 8 9 10 16 5 14 -15 -4 -84 35 -84 47 0 6
-13 21 -29 33 -22 16 -31 32 -34 59 -4 37 -4 37 -5 -7 -1 -25 -6 -60 -11 -78
-12 -41 -3 -42 11 -1 l11 31 19 -31 c17 -27 18 -32 5 -45 -11 -11 -17 -12 -26
-3 -9 9 -11 9 -6 -3 5 -15 -32 -47 -43 -36 -3 3 0 6 6 6 7 0 12 5 12 12 0 6
-13 -1 -29 -16 -21 -20 -30 -24 -34 -14 -4 9 -6 10 -6 1 -1 -7 -8 -13 -17 -13
-14 0 -15 10 -10 73 l6 72 -15 -50 c-9 -27 -14 -64 -12 -82 2 -25 -1 -33 -18
-37 -34 -9 -45 -7 -39 9 5 11 2 13 -10 9 -9 -3 -13 -11 -9 -17 3 -6 1 -7 -5
-3 -7 4 -12 2 -12 -5 0 -7 -3 -10 -6 -7 -3 4 11 39 31 79 42 84 87 191 82 196
-2 2 -27 -47 -56 -109 -29 -62 -64 -131 -79 -153 -14 -22 -27 -44 -27 -49 0
-12 -36 -17 -50 -8 -6 4 -2 -1 8 -10 11 -10 15 -18 10 -18 -13 0 -44 35 -38
42 3 3 -8 29 -25 57 -16 29 -30 54 -30 56 0 12 -83 216 -86 212 -4 -4 52 -166
81 -232 22 -51 27 -88 12 -78 -7 4 -18 8 -25 9 -31 5 -42 15 -42 39 0 32 -42
175 -51 175 -4 0 2 -27 12 -61 22 -70 24 -108 7 -110 -7 -1 -41 -3 -75 -4 -65
-2 -70 1 -63 44 1 8 -8 22 -19 30 l-21 16 22 35 22 35 7 -25 c6 -19 7 -15 6
17 l-2 42 -25 -29 c-14 -17 -30 -30 -34 -30 -5 0 -22 -14 -38 -32 -15 -17 -28
-26 -28 -19 0 7 -5 9 -10 6 -6 -3 -10 -1 -10 5 0 6 -5 8 -11 5 -6 -5 -4 -12 8
-22 16 -13 16 -14 1 -9 -11 3 -19 -2 -23 -15 -5 -15 -10 -17 -26 -9 -15 8 -19
8 -17 -2 2 -7 10 -16 18 -20 12 -5 12 -7 -2 -7 -10 -1 -18 -8 -18 -16 0 -8 -6
-16 -12 -17 -40 -5 -68 -4 -68 1 0 4 -29 4 -64 1 -57 -5 -63 -3 -56 11 5 8 16
21 24 29 9 7 16 17 16 22 0 5 -7 2 -16 -6 -8 -9 -20 -14 -25 -11 -5 4 -6 -2
-2 -11 4 -11 3 -15 -5 -11 -6 4 -13 -1 -15 -10 -4 -17 -5 -17 -6 0 0 10 -5 15
-11 12 -5 -3 -18 -1 -27 5 -15 9 -12 10 15 7 17 -2 32 0 32 5 0 4 -15 8 -32 8
-52 0 -108 -12 -102 -21 3 -5 -2 -6 -11 -3 -20 8 -117 -35 -108 -49 3 -5 10
-3 15 4 7 11 8 9 4 -4 -3 -10 -6 -21 -6 -23 0 -3 -4 -3 -8 0 -16 10 -7 -39 11
-59 10 -10 15 -25 12 -32 -4 -11 0 -11 18 -2 21 11 21 11 -2 -15 -17 -18 -20
-26 -10 -26 8 0 1 -11 -16 -26 l-30 -26 32 21 c42 29 51 26 22 -5 l-24 -27 28
18 c15 10 26 24 23 30 -2 7 7 23 22 36 l27 24 -24 -27 c-14 -16 -20 -28 -14
-28 11 0 49 50 46 60 -1 3 7 6 18 6 10 0 19 -3 19 -7 0 -4 9 -9 21 -12 12 -3
18 -10 15 -15 -8 -14 37 -2 47 12 5 6 5 -5 1 -24 -7 -36 1 -36 20 1 6 12 21
26 34 30 15 6 21 5 17 -1 -3 -6 5 -10 18 -10 14 0 27 -7 31 -15 3 -8 2 -14 -2
-13 -20 7 -108 -70 -142 -126 -61 -96 -77 -113 -123 -129 -23 -9 -34 -16 -24
-16 45 -2 92 37 137 114 29 51 59 87 85 105 47 32 85 46 85 31 0 -16 19 -13
38 5 15 15 14 16 -7 9 -16 -5 -21 -4 -17 4 4 6 22 11 39 11 22 0 28 3 18 9
-11 7 -8 12 11 25 26 17 130 48 123 36 -5 -9 33 -71 42 -68 11 3 52 -21 77
-43 11 -11 14 -19 8 -19 -19 0 -14 -20 6 -20 46 -1 70 -60 35 -85 -16 -12 -14
-12 10 -8 15 3 24 9 21 14 -3 5 0 24 7 42 12 33 12 33 63 26 28 -4 63 -12 77
-17 15 -6 36 -8 48 -5 19 5 31 -11 13 -19 -4 -1 -4 -25 -1 -53 5 -41 6 -44 8
-15 2 47 8 54 65 73 48 17 162 24 140 9 -7 -4 12 -8 41 -9 44 -1 56 2 76 23
12 13 30 24 38 24 14 1 14 2 -1 13 -15 12 -15 14 0 24 14 9 15 12 3 27 -13 15
-11 15 15 1 16 -8 35 -15 42 -15 6 0 12 -4 12 -10 0 -5 -3 -10 -7 -10 -10 0
-9 -57 0 -67 4 -3 -5 -22 -20 -42 -22 -29 -22 -32 -5 -17 12 11 25 16 29 13 3
-4 16 1 27 10 16 14 15 11 -5 -17 -40 -55 -45 -67 -18 -45 13 11 27 25 31 30
4 6 8 1 8 -9 0 -11 3 -16 8 -12 4 4 7 12 7 17 0 5 5 8 10 7 6 -2 9 -25 7 -53
-4 -58 6 -55 19 6 9 37 49 89 70 89 9 0 28 47 22 54 -4 3 -8 17 -9 31 -2 19 3
26 22 31 34 9 87 -34 133 -106 58 -92 64 -99 30 -35 -17 33 -50 79 -73 103
l-41 44 85 -3 c111 -4 118 -6 123 -38 4 -24 4 -24 6 5 1 30 2 30 52 29 65 -1
91 16 88 59 -3 32 6 56 20 56 5 0 4 -23 -2 -50 -5 -28 -7 -54 -3 -58 4 -3 42
-7 83 -7 l77 0 17 -50 c10 -27 18 -43 19 -34 0 9 -7 33 -15 52 -8 20 -11 38
-7 41 4 2 26 1 50 -4 23 -4 45 -3 48 1 3 5 13 5 23 0 10 -6 23 -6 32 0 22 14
25 12 64 -46 l36 -55 -20 -82 c-28 -109 -27 -135 11 -215 32 -66 61 -102 84
-103 22 0 33 -24 20 -42 -7 -10 -17 -14 -21 -10 -5 4 -5 2 -2 -4 4 -6 -2 -30
-13 -52 -23 -46 -25 -65 -15 -137 8 -64 23 -103 44 -114 9 -5 37 -12 63 -16
63 -9 69 -30 22 -72 -20 -18 -42 -34 -48 -36 -7 -3 -11 -52 -9 -155 0 -84 -3
-155 -8 -158 -15 -9 -10 -91 6 -108 8 -8 15 -17 15 -20 0 -3 16 -22 35 -43 50
-53 61 -103 39 -162 -9 -25 -21 -49 -27 -52 -5 -4 -12 -27 -14 -53 -3 -25 -9
-46 -13 -46 -5 0 -11 -18 -15 -41 -8 -48 8 -95 36 -102 14 -4 19 -14 19 -36 0
-17 4 -31 8 -31 5 0 9 -6 10 -12 1 -7 4 -27 8 -44 5 -26 1 -34 -28 -56 -18
-13 -45 -28 -60 -32 -16 -3 -28 -11 -28 -16 0 -6 -7 -10 -15 -10 -10 0 -15
-10 -15 -27 0 -54 11 -71 58 -93 26 -12 60 -29 76 -37 21 -11 31 -13 34 -5 5
15 52 16 52 2 0 -5 7 -10 15 -10 8 0 15 -4 15 -9 0 -15 61 -19 130 -9 109 16
180 21 293 22 92 1 111 -2 121 -17 7 -9 18 -17 24 -17 6 0 19 -9 29 -19 28
-31 93 -40 321 -47 159 -5 224 -4 270 6 33 8 59 17 57 21 -5 8 30 19 61 19 11
0 29 8 38 19 9 10 35 21 56 25 l40 6 0 2285 0 2285 -3200 0 -3200 0 0 -4000z
m3440 3821 c0 -27 -15 -34 -34 -15 -19 19 -12 34 15 34 12 0 19 -7 19 -19z
m14 -146 c3 -9 -1 -18 -10 -22 -19 -7 -39 11 -30 26 10 16 33 13 40 -4z m2
-146 c10 -17 -13 -36 -27 -22 -12 12 -4 33 11 33 5 0 12 -5 16 -11z m-31 -47
c-3 -3 -11 0 -18 7 -9 10 -8 11 6 5 10 -3 15 -9 12 -12z m943 -955 c4 -20 -25
-34 -40 -19 -15 15 -1 44 19 40 10 -2 19 -11 21 -21z m0 -120 c2 -12 -3 -17
-17 -17 -12 0 -21 6 -21 13 0 31 32 34 38 4z m-10 -109 c-6 -18 -28 -21 -28
-4 0 9 7 16 16 16 9 0 14 -5 12 -12z m80 1 c-2 -6 -8 -10 -13 -10 -5 0 -11 4
-13 10 -2 6 4 11 13 11 9 0 15 -5 13 -11z m-63 -79 c0 -16 -6 -26 -18 -28 -19
-4 -32 20 -23 44 9 25 41 13 41 -16z m75 -140 c0 -5 -2 -10 -4 -10 -3 0 -8 5
-11 10 -3 6 -1 10 4 10 6 0 11 -4 11 -10z m-1620 -60 c0 -5 -5 -10 -11 -10 -5
0 -7 5 -4 10 3 6 8 10 11 10 2 0 4 -4 4 -10z m1235 -50 l30 -8 -30 0 c-16 0
-39 3 -50 8 l-20 9 20 -1 c11 0 34 -4 50 -8z m65 -30 c-20 -13 -33 -13 -25 0
3 6 14 10 23 10 15 0 15 -2 2 -10z m86 -6 c-3 -8 -2 -13 3 -10 13 8 60 -17 63
-34 7 -27 -4 -120 -13 -120 -5 0 -9 10 -10 23 l0 22 -9 -22 c-5 -13 -14 -23
-20 -23 -12 0 -13 -6 5 60 19 72 19 86 1 71 -12 -10 -17 -8 -26 9 -6 11 -8 25
-5 30 10 16 18 12 11 -6z m-1712 -3 c18 -7 17 -9 -7 -28 -15 -11 -24 -22 -22
-25 3 -3 -2 -5 -10 -5 -8 0 -15 5 -15 11 0 6 -4 5 -9 -2 -6 -11 -10 -10 -15 4
-8 20 20 54 43 53 9 0 25 -4 35 -8z m576 -45 c0 -2 -9 -2 -20 1 -11 3 -20 9
-20 15 0 5 9 4 20 -2 11 -6 20 -12 20 -14z m668 -13 c5 -53 -11 -98 -37 -101
-23 -4 -23 -2 -16 60 8 74 11 80 33 76 11 -2 18 -15 20 -35z m62 -33 c0 -65
-10 -88 -24 -57 -5 10 -7 10 -12 0 -12 -26 -25 -12 -19 20 16 80 27 107 40
107 12 0 15 -15 15 -70z m66 15 c-6 -70 9 -73 17 -4 7 57 14 70 26 50 7 -11 9
-11 13 0 3 8 8 11 12 8 4 -3 2 -19 -4 -35 -6 -16 -9 -45 -6 -66 l5 -38 -60 0
-60 0 7 63 c8 74 9 77 36 77 18 0 19 -5 14 -55z m115 33 l2 -23 4 23 c8 42 25
24 18 -20 -12 -79 -17 -98 -26 -98 -5 0 -10 12 -10 28 l-2 27 -4 -27 c-2 -16
-9 -28 -15 -28 -9 0 -2 114 9 133 9 15 23 6 24 -15z m79 12 c0 -5 -4 -10 -10
-10 -15 0 -12 -40 3 -40 6 0 4 -5 -5 -11 -19 -11 -25 -49 -8 -49 6 0 10 -4 10
-10 0 -5 -10 -10 -23 -10 -23 0 -23 1 -14 70 8 58 13 70 28 70 11 0 19 -4 19
-10z m60 -15 c0 -26 -15 -34 -23 -12 -2 6 -2 3 1 -8 2 -11 5 -36 6 -55 1 -29
-3 -36 -21 -38 -19 -3 -23 1 -23 22 0 32 20 45 21 14 0 -13 3 -17 6 -10 3 7 0
26 -7 42 -15 36 -5 70 21 70 14 0 19 -7 19 -25z m60 0 c0 -29 -16 -34 -23 -7
-4 15 -5 15 -6 0 0 -9 4 -20 9 -23 6 -3 10 -24 10 -46 0 -33 -3 -39 -20 -39
-24 0 -35 22 -25 48 7 15 9 14 15 -8 6 -18 8 -20 9 -7 1 10 -4 27 -10 39 -15
28 -3 68 21 68 15 0 20 -7 20 -25z m165 -23 c0 -24 -3 -46 -7 -48 -3 -2 -4
-13 -1 -24 4 -14 0 -20 -11 -20 -9 0 -16 6 -17 13 0 10 -2 10 -6 0 -8 -22 -24
-14 -18 10 3 12 7 42 9 67 2 25 4 46 5 48 1 2 11 2 24 0 19 -3 22 -9 22 -46z
m65 38 c0 -5 -4 -10 -10 -10 -5 0 -10 -24 -10 -54 0 -30 -5 -58 -11 -61 -17
-11 -22 2 -19 42 1 21 3 50 3 66 0 22 4 27 23 27 13 0 24 -4 24 -10z m22 -47
c-5 -66 6 -68 14 -2 6 51 10 59 30 59 8 0 14 -10 14 -26 0 -14 -4 -23 -10 -19
-6 4 -7 11 -4 17 4 7 2 8 -4 4 -7 -4 -6 -15 5 -34 30 -52 -7 -108 -45 -70 -9
9 -12 9 -12 0 0 -7 -5 -12 -11 -12 -10 0 -8 32 7 113 10 49 21 28 16 -30z
m128 47 c0 -5 -4 -10 -9 -10 -5 0 -12 -27 -16 -60 -10 -83 -25 -76 -22 10 2
65 4 70 25 70 12 0 22 -4 22 -10z m-1850 -20 c0 -16 -7 -20 -32 -20 -31 0 -31
0 -12 19 25 26 44 26 44 1z m948 -5 c-3 -3 -9 2 -12 12 -6 14 -5 15 5 6 7 -7
10 -15 7 -18z m9 -47 c-3 -7 -5 -2 -5 12 0 14 2 19 5 13 2 -7 2 -19 0 -25z
m-517 -3 c0 -19 -20 -29 -32 -17 -15 15 -2 43 17 36 8 -3 15 -12 15 -19z
m-890 2 c0 -2 -15 -16 -32 -33 l-33 -29 29 33 c28 30 36 37 36 29z m1283 -11
c10 -8 14 -17 8 -20 -8 -5 -41 18 -41 30 0 8 15 3 33 -10z m84 -13 c-9 -9 -20
-14 -24 -10 -3 4 2 14 13 21 25 19 33 10 11 -11z m33 -7 c0 -2 -8 -10 -17 -17
-16 -13 -17 -12 -4 4 13 16 21 21 21 13z m-538 -70 c16 0 33 -46 17 -46 -5 0
-9 4 -9 9 0 5 -15 19 -32 31 -18 12 -24 19 -13 14 11 -4 28 -7 37 -8z m-62
-11 c17 -9 30 -17 30 -19 0 -6 -78 18 -86 27 -13 13 26 7 56 -8z m-1327 -242
c-7 -2 -19 -2 -25 0 -7 3 -2 5 12 5 14 0 19 -2 13 -5z m-1184 -1357 c7 -8 10
-24 6 -35 -5 -17 -9 -19 -25 -9 -12 8 -15 15 -9 19 8 4 5 16 -7 34 -18 28 -18
28 2 17 11 -6 26 -18 33 -26z m881 -292 c0 -8 -4 -12 -10 -9 -5 3 -10 10 -10
16 0 5 5 9 10 9 6 0 10 -7 10 -16z m-5 -74 c-3 -5 -12 -10 -18 -10 -7 0 -6 4
3 10 19 12 23 12 15 0z m593 -893 c4 -20 -25 -34 -40 -19 -15 15 -1 44 19 40
10 -2 19 -11 21 -21z m7 -165 c0 -18 -20 -15 -23 4 -3 10 1 15 10 12 7 -3 13
-10 13 -16z m-35 -92 c0 -5 -4 -10 -10 -10 -5 0 -10 5 -10 10 0 6 5 10 10 10
6 0 10 -4 10 -10z m-263 -516 c1 -59 1 -59 -7 -15 -5 23 -12 52 -16 63 -4 15
-2 19 7 16 10 -3 15 -24 16 -64z"/>
<path d="M3716 5844 c-3 -26 -4 -49 -2 -52 3 -2 8 17 11 43 4 25 5 48 3 51 -3
2 -8 -17 -12 -42z"/>
<path d="M3851 5874 c0 -11 3 -14 6 -6 3 7 2 16 -1 19 -3 4 -6 -2 -5 -13z"/>
<path d="M2590 7812 c0 -5 10 -17 22 -28 l21 -19 -18 28 c-18 28 -25 33 -25
19z"/>
<path d="M2680 7725 c19 -19 36 -35 39 -35 3 0 -10 16 -29 35 -19 19 -36 35
-39 35 -3 0 10 -16 29 -35z"/>
<path d="M2780 7746 c0 -2 7 -7 16 -10 8 -3 12 -2 9 4 -6 10 -25 14 -25 6z"/>
<path d="M2825 7724 c6 -6 44 -35 85 -66 42 -31 90 -75 108 -97 33 -41 41 -57
21 -45 -6 3 -4 -7 4 -22 21 -40 46 -71 47 -58 0 5 -5 15 -12 22 -6 6 -9 15 -5
18 4 4 13 -8 20 -26 8 -18 17 -28 20 -22 4 5 -4 26 -18 46 -14 20 -25 39 -25
41 0 14 -114 124 -165 160 -63 44 -98 65 -80 49z m245 -235 c0 -6 -4 -7 -10
-4 -5 3 -10 11 -10 16 0 6 5 7 10 4 6 -3 10 -11 10 -16z"/>
<path d="M3105 7687 c-7 -18 -16 -46 -19 -63 -7 -32 -3 -24 24 49 20 53 16 65
-5 14z"/>
<path d="M3182 7695 c0 -16 2 -22 5 -12 2 9 2 23 0 30 -3 6 -5 -1 -5 -18z"/>
<path d="M3192 7640 c0 -14 2 -19 5 -12 2 6 2 18 0 25 -3 6 -5 1 -5 -13z"/>
<path d="M3255 7590 c-21 -22 -31 -27 -37 -18 -4 8 -8 9 -8 2 0 -24 15 -23 43
3 l29 28 -6 -35 c-5 -30 -5 -32 4 -11 6 14 9 30 6 37 -3 7 0 15 7 18 7 2 7 5
1 5 -5 1 -23 -13 -39 -29z"/>
<path d="M2950 7591 c5 -11 15 -23 21 -27 6 -3 3 5 -6 20 -20 30 -30 35 -15 7z"/>
<path d="M3071 7583 c-1 -6 -4 -20 -7 -30 -5 -17 -5 -17 6 0 6 10 9 23 6 30
-3 9 -5 9 -5 0z"/>
<path d="M3130 7525 c0 -61 11 -83 30 -60 11 13 10 14 -5 9 -16 -7 -17 -3 -13
33 3 22 2 47 -3 54 -6 9 -9 -4 -9 -36z"/>
<path d="M3800 7488 c-15 -21 -17 -28 -6 -19 16 13 41 51 33 51 -2 0 -14 -15
-27 -32z"/>
<path d="M3734 7484 c-18 -14 -18 -14 6 -3 31 14 36 19 24 19 -6 0 -19 -7 -30
-16z"/>
<path d="M3260 7471 c0 -6 4 -13 10 -16 6 -3 7 1 4 9 -7 18 -14 21 -14 7z"/>
<path d="M3659 7439 c-62 -44 -114 -105 -146 -170 l-28 -57 -25 17 c-34 24
-95 51 -112 50 -7 0 4 -7 25 -16 20 -8 37 -19 37 -24 0 -12 -7 -11 -32 2 -13
7 -18 7 -14 1 3 -6 2 -13 -3 -16 -5 -4 -8 -14 -6 -24 2 -9 4 -21 4 -25 1 -5 6
-5 11 -2 6 3 10 1 10 -4 0 -18 54 -8 72 14 16 20 17 20 47 -9 17 -17 31 -25
31 -19 0 6 -7 16 -15 23 -22 18 -19 35 16 101 30 55 87 117 154 166 46 34 24
27 -26 -8z m-199 -230 c0 -3 -10 -14 -21 -25 -22 -19 -22 -19 -10 3 17 34 13
41 -9 13 l-20 -25 11 32 c9 28 13 31 30 20 10 -6 19 -15 19 -18z m-66 12 c3
-5 0 -14 -8 -20 -10 -9 -15 -8 -19 3 -9 22 15 37 27 17z"/>
<path d="M2428 7453 c7 -3 16 -2 19 1 4 3 -2 6 -13 5 -11 0 -14 -3 -6 -6z"/>
<path d="M2478 7443 c7 -3 16 -2 19 1 4 3 -2 6 -13 5 -11 0 -14 -3 -6 -6z"/>
<path d="M2385 7400 c21 -22 41 -40 44 -40 3 0 -13 18 -34 40 -21 22 -41 40
-44 40 -3 0 13 -18 34 -40z"/>
<path d="M2572 7417 c36 -14 88 -36 115 -51 43 -23 45 -23 21 -3 -28 23 -121
62 -173 72 -16 3 0 -5 37 -18z"/>
<path d="M3056 7427 c3 -10 9 -15 12 -12 3 3 0 11 -7 18 -10 9 -11 8 -5 -6z"/>
<path d="M3755 7419 c-4 -6 -5 -12 -2 -15 2 -3 7 2 10 11 7 17 1 20 -8 4z"/>
<path d="M3302 7365 c0 -16 2 -22 5 -12 2 9 2 23 0 30 -3 6 -5 -1 -5 -18z"/>
<path d="M2649 7356 c7 -9 10 -16 6 -16 -5 0 -1 -8 8 -18 10 -10 14 -22 10
-27 -5 -4 -3 -5 3 -2 6 3 28 -5 50 -19 37 -24 36 -23 -11 20 -53 49 -54 60 -2
24 24 -17 28 -18 18 -4 -8 9 -33 27 -55 38 -32 17 -38 17 -27 4z"/>
<path d="M3592 7294 c-26 -29 -39 -51 -35 -61 4 -11 2 -14 -5 -9 -7 4 -12 2
-12 -5 0 -7 -3 -10 -6 -6 -3 3 1 20 10 38 18 36 20 48 7 34 -13 -14 -42 -87
-32 -80 17 10 33 -22 21 -44 -8 -16 -7 -27 5 -48 13 -23 15 -24 10 -5 -4 13
-2 22 4 22 6 0 11 -5 11 -11 0 -5 4 -8 9 -4 5 3 16 -4 24 -16 9 -12 18 -16 21
-10 4 5 13 8 21 4 8 -3 15 -1 15 4 0 4 10 14 23 22 l22 14 -21 -24 c-50 -56
-45 -71 7 -20 30 30 54 57 54 62 0 4 4 11 9 16 5 5 6 3 2 -4 -4 -7 -5 -13 -1
-13 8 0 57 32 74 48 11 11 9 12 -15 6 -16 -3 -42 -13 -58 -20 -34 -16 -39 -17
-32 -6 3 5 -12 8 -32 6 -53 -2 -70 6 -46 23 21 15 15 17 -19 4 -25 -10 -25 -9
-15 27 6 20 16 49 24 64 23 45 0 40 -44 -8z m25 -6 c-14 -23 -31 -44 -38 -47
-8 -2 -7 3 4 13 10 10 24 31 32 47 9 16 18 29 21 29 3 0 -5 -19 -19 -42z"/>
<path d="M3715 7270 c-4 -16 -11 -30 -17 -30 -6 0 -9 -2 -7 -5 3 -2 27 2 54
10 42 12 44 14 12 9 -36 -5 -37 -4 -31 20 3 15 4 26 1 26 -3 0 -8 -13 -12 -30z"/>
<path d="M3838 7263 c23 -2 61 -2 85 0 23 2 4 4 -43 4 -47 0 -66 -2 -42 -4z"/>
<path d="M4008 7253 c7 -3 16 -2 19 1 4 3 -2 6 -13 5 -11 0 -14 -3 -6 -6z"/>
<path d="M2661 7223 c1 -18 18 -47 18 -34 1 10 12 5 34 -16 35 -33 76 -58 84
-50 2 3 -9 15 -26 28 -24 17 -28 25 -19 36 9 11 7 12 -7 7 -14 -6 -16 -4 -10
6 5 9 4 11 -4 6 -6 -4 -8 -12 -5 -18 4 -6 -5 -3 -19 8 -15 10 -27 22 -27 27 0
4 -4 7 -10 7 -5 0 -10 -3 -9 -7z"/>
<path d="M3984 7214 c-18 -14 -18 -14 6 -3 31 14 36 19 24 19 -6 0 -19 -7 -30
-16z"/>
<path d="M3660 7200 c-9 -6 -10 -10 -3 -10 6 0 15 5 18 10 8 12 4 12 -15 0z"/>
<path d="M3061 7184 c0 -11 3 -14 6 -6 3 7 2 16 -1 19 -3 4 -6 -2 -5 -13z"/>
<path d="M3291 7190 c0 -8 4 -24 9 -35 5 -13 9 -14 9 -5 0 8 -4 24 -9 35 -5
13 -9 14 -9 5z"/>
<path d="M3920 7170 c-19 -16 -31 -30 -27 -30 4 0 22 13 40 30 41 38 33 38
-13 0z"/>
<path d="M3183 7088 c1 -60 5 -108 10 -108 4 0 6 33 3 73 -4 59 -3 64 4 27 14
-71 11 -155 -5 -186 -8 -16 -15 -39 -15 -51 0 -13 -4 -23 -9 -23 -5 0 -11 10
-14 23 -3 12 -12 45 -21 72 l-16 50 6 -55 c4 -42 2 -51 -6 -38 -14 22 -40 107
-40 131 0 9 -8 26 -17 36 -10 11 -33 44 -52 75 -19 31 -37 54 -39 52 -2 -2 9
-22 23 -45 15 -22 24 -45 19 -52 -4 -7 -3 -10 3 -6 6 4 15 -4 20 -16 10 -22
10 -22 -46 5 -31 15 -65 27 -76 27 -16 -1 -15 -2 5 -8 34 -11 80 -36 108 -60
37 -32 25 -32 -28 -1 -72 43 -61 28 18 -23 57 -37 69 -49 78 -84 9 -33 8 -40
-3 -36 -7 3 -13 9 -13 14 0 5 -5 9 -12 9 -6 0 -2 -10 10 -23 12 -13 22 -28 22
-34 0 -6 7 -16 15 -23 28 -23 15 -29 -32 -15 -48 14 -74 13 -31 -1 22 -8 22
-8 -7 -15 -29 -6 -29 -7 8 -8 36 -1 51 -21 27 -36 -6 -4 -8 -11 -5 -16 4 -5 1
-9 -4 -9 -18 0 -13 -25 11 -56 19 -26 18 -25 -15 5 -49 46 -61 31 -14 -16 21
-20 37 -40 37 -44 0 -3 12 -14 26 -24 15 -9 24 -13 20 -7 -9 15 3 39 22 47 14
5 14 4 -1 -13 -9 -10 -14 -21 -11 -25 9 -9 55 24 48 34 -3 5 12 26 33 47 47
46 65 76 56 98 -5 14 -3 16 13 10 41 -17 57 -19 50 -7 -6 8 -2 11 10 9 16 -2
19 3 16 30 -1 17 3 32 9 32 5 0 7 -4 4 -10 -3 -5 -1 -10 4 -10 14 0 14 36 0
62 -14 26 -6 32 23 17 12 -6 20 -8 16 -4 -4 5 -2 15 5 24 11 14 10 15 -8 1
-19 -14 -19 -14 -6 2 15 19 31 15 31 -8 0 -8 5 -14 10 -14 16 0 12 36 -6 51
-22 18 -67 90 -67 107 0 7 -8 4 -19 -7 -10 -11 -18 -28 -18 -37 0 -31 -11 -7
-20 43 -7 46 -8 45 -10 -32 -2 -104 -18 -146 -20 -55 l-2 65 -15 -67 c-9 -38
-20 -68 -25 -68 -6 0 -7 11 -4 24 3 14 1 28 -4 31 -6 4 -7 11 -4 17 4 6 2 8
-3 5 -6 -4 -15 22 -22 66 -6 40 -18 92 -26 117 -14 44 -14 43 -12 -62z m37
-318 c0 -5 -5 -10 -11 -10 -5 0 -7 5 -4 10 3 6 8 10 11 10 2 0 4 -4 4 -10z
m50 0 c0 -5 -5 -10 -11 -10 -5 0 -7 5 -4 10 3 6 8 10 11 10 2 0 4 -4 4 -10z
m-145 -10 c3 -5 2 -10 -4 -10 -5 0 -13 5 -16 10 -3 6 -2 10 4 10 5 0 13 -4 16
-10z m124 -36 c-7 -8 -20 -19 -30 -25 -15 -8 -17 -6 -13 6 4 9 9 13 12 11 9
-9 32 16 25 27 -3 6 -1 7 6 3 9 -6 9 -11 0 -22z m-154 -24 c-3 -5 2 -22 11
-37 16 -27 16 -27 -9 2 -17 21 -22 32 -14 37 16 10 19 10 12 -2z m99 -44 c-3
-9 -10 -16 -15 -16 -5 0 -4 9 3 20 14 22 21 20 12 -4z"/>
<path d="M2692 7158 c8 -7 25 -30 37 -50 13 -21 25 -38 27 -38 3 0 2 6 -2 13
-37 61 -56 87 -66 87 -7 0 -6 -5 4 -12z"/>
<path d="M3311 7114 c0 -11 3 -14 6 -6 3 7 2 16 -1 19 -3 4 -6 -2 -5 -13z"/>
<path d="M3869 7113 c-13 -16 -12 -17 4 -4 9 7 17 15 17 17 0 8 -8 3 -21 -13z"/>
<path d="M3063 7080 c0 -25 2 -35 4 -22 2 12 2 32 0 45 -2 12 -4 2 -4 -23z"/>
<path d="M2700 7105 c0 -5 5 -17 10 -25 5 -8 10 -10 10 -5 0 6 -5 17 -10 25
-5 8 -10 11 -10 5z"/>
<path d="M2669 7062 c11 -16 28 -35 38 -43 9 -8 2 5 -17 29 -38 48 -52 57 -21
14z"/>
<path d="M2720 7051 c0 -6 4 -13 10 -16 6 -3 7 1 4 9 -7 18 -14 21 -14 7z"/>
<path d="M3795 7013 c-21 -27 -28 -39 -16 -28 23 19 66 75 59 75 -2 0 -21 -21
-43 -47z"/>
<path d="M3960 6959 c-19 -11 -26 -17 -15 -13 11 3 25 7 32 7 7 0 14 6 17 14
7 16 8 16 -34 -8z"/>
<path d="M2566 6940 c4 -8 17 -29 30 -46 l23 -31 -72 -6 c-40 -3 -83 -10 -97
-16 l-25 -12 25 6 c14 3 59 8 100 10 55 3 65 2 35 -4 -36 -7 -37 -8 -10 -10
22 -1 26 -4 16 -10 -8 -5 -11 -16 -8 -25 6 -14 1 -16 -31 -11 -20 3 -30 2 -22
-1 8 -4 17 -10 20 -13 8 -11 100 -62 100 -56 0 3 -14 14 -31 24 l-31 19 35 -3
c54 -5 79 4 72 26 -9 27 12 24 39 -6 l23 -25 -10 39 c-7 27 -19 43 -36 51
l-26 12 23 -22 c31 -29 28 -33 -10 -10 -39 23 -85 64 -116 105 -13 17 -20 23
-16 15z"/>
<path d="M3773 6943 c9 -2 25 -2 35 0 9 3 1 5 -18 5 -19 0 -27 -2 -17 -5z"/>
<path d="M3853 6933 c9 -2 25 -2 35 0 9 3 1 5 -18 5 -19 0 -27 -2 -17 -5z"/>
<path d="M3945 6894 c-9 -15 -12 -23 -6 -20 11 7 35 46 28 46 -3 0 -12 -12
-22 -26z"/>
<path d="M3909 6843 c-13 -16 -12 -17 4 -4 9 7 17 15 17 17 0 8 -8 3 -21 -13z"/>
<path d="M3855 6778 l-40 -43 43 40 c23 21 42 40 42 42 0 8 -9 0 -45 -39z"/>
<path d="M3556 6788 c18 -30 29 -35 40 -16 4 7 3 8 -5 4 -7 -4 -20 2 -32 16
l-20 23 17 -27z"/>
<path d="M2400 6776 c0 -2 7 -7 16 -10 8 -3 12 -2 9 4 -6 10 -25 14 -25 6z"/>
<path d="M2520 6685 c30 -30 57 -55 59 -55 3 0 -19 25 -49 55 -30 30 -57 55
-59 55 -3 0 19 -25 49 -55z"/>
<path d="M3760 6710 c-9 -6 -10 -10 -3 -10 6 0 15 5 18 10 8 12 4 12 -15 0z"/>
<path d="M3259 6657 c-25 -22 -63 -76 -57 -82 2 -1 22 22 46 51 47 60 49 64
11 31z"/>
<path d="M2830 6617 c21 -35 21 -39 6 -56 -18 -20 -22 -41 -4 -23 20 20 28 14
27 -20 -1 -31 -1 -32 -9 -8 l-8 25 -1 -27 c-1 -28 12 -37 24 -18 12 19 23 10
31 -22 4 -18 9 -27 11 -21 3 7 -3 37 -11 67 -9 30 -17 69 -17 88 l-1 33 -7
-30 c-6 -27 -8 -28 -14 -9 -4 12 -17 30 -28 40 -20 18 -20 18 1 -19z"/>
<path d="M2523 6598 c-13 -6 -23 -15 -23 -20 0 -4 10 -8 23 -7 13 0 16 3 8 6
-10 4 -8 9 10 19 29 16 14 17 -18 2z"/>
<path d="M3040 6577 c0 -3 12 -12 26 -22 15 -9 23 -12 20 -6 -7 11 -46 35 -46
28z"/>
<path d="M2785 6540 c4 -19 11 -39 16 -44 4 -5 3 8 -2 30 -14 50 -24 60 -14
14z"/>
<path d="M3039 6540 c31 -30 33 -34 16 -40 -17 -6 -17 -7 -2 -13 15 -6 22 3
18 26 -2 14 20 7 25 -8 4 -8 11 -15 17 -15 16 0 -21 33 -68 60 l-40 24 34 -34z"/>
<path d="M3480 6551 c-5 -11 -10 -27 -10 -36 0 -10 -5 -15 -14 -12 -9 4 -17
-8 -25 -35 -7 -22 -10 -42 -7 -45 11 -11 62 9 75 29 l13 21 -27 -21 c-25 -20
-55 -29 -55 -18 0 3 4 16 9 30 8 18 15 23 31 19 18 -5 20 -2 15 20 -4 14 -2
35 5 46 6 12 8 21 6 21 -3 0 -10 -9 -16 -19z"/>
<path d="M2580 6556 c0 -2 7 -7 16 -10 8 -3 12 -2 9 4 -6 10 -25 14 -25 6z"/>
<path d="M3224 6528 l-19 -23 23 19 c12 11 22 21 22 23 0 8 -8 2 -26 -19z"/>
<path d="M2620 6536 c0 -2 8 -10 18 -17 15 -13 16 -12 3 4 -13 16 -21 21 -21
13z"/>
<path d="M3100 6536 c0 -2 8 -10 18 -17 15 -13 16 -12 3 4 -13 16 -21 21 -21
13z"/>
<path d="M3257 6529 c-14 -8 -16 -14 -6 -25 15 -18 3 -32 -13 -16 -7 7 -16 12
-21 12 -5 0 1 -8 14 -19 20 -15 36 -18 94 -14 79 6 100 13 36 13 -26 0 -40 4
-36 10 9 14 -8 12 -24 -2 -11 -10 -13 -10 -7 0 5 8 0 12 -13 12 -11 0 -23 5
-27 12 -5 7 -2 9 8 6 9 -4 15 0 15 8 0 8 -1 14 -1 14 -1 0 -9 -5 -19 -11z"/>
<path d="M3136 6503 c-6 -14 -5 -15 5 -6 7 7 10 15 7 18 -3 3 -9 -2 -12 -12z"/>
<path d="M3186 6493 c-6 -14 -5 -15 5 -6 7 7 10 15 7 18 -3 3 -9 -2 -12 -12z"/>
<path d="M2978 6493 c6 -2 18 -2 25 0 6 3 1 5 -13 5 -14 0 -19 -2 -12 -5z"/>
<path d="M3020 6481 c0 -5 -14 -9 -30 -9 -17 1 -33 -2 -37 -5 -3 -4 12 -7 35
-7 31 0 42 4 42 15 0 8 -2 15 -5 15 -3 0 -5 -4 -5 -9z"/>
<path d="M2832 6455 l28 -24 -28 -4 c-18 -3 -13 -4 17 -6 40 -1 43 -3 38 -23
-3 -13 -11 -49 -18 -80 -11 -47 -17 -58 -37 -63 -13 -3 -22 -8 -20 -11 11 -10
58 16 58 33 0 30 33 134 40 126 4 -4 12 -27 18 -49 17 -61 162 -199 221 -210
51 -10 78 3 158 79 59 56 74 67 69 47 -6 -21 -5 -22 4 -7 6 9 9 21 6 26 -4 5
3 31 14 57 11 26 19 52 17 58 -2 6 -12 -13 -21 -42 -18 -54 -81 -128 -157
-185 -62 -47 -108 -33 -217 68 -64 59 -74 74 -89 125 -10 36 -20 57 -28 54 -6
-3 -29 9 -50 26 -45 36 -62 40 -23 5z"/>
<path d="M3048 6463 c7 -3 16 -2 19 1 4 3 -2 6 -13 5 -11 0 -14 -3 -6 -6z"/>
<path d="M3534 6454 c-18 -14 -18 -15 4 -4 12 6 22 13 22 15 0 8 -5 6 -26 -11z"/>
<path d="M3088 6453 c7 -3 16 -2 19 1 4 3 -2 6 -13 5 -11 0 -14 -3 -6 -6z"/>
<path d="M3770 6444 c0 -8 -4 -13 -9 -10 -5 4 -7 -3 -4 -14 9 -33 30 -24 25
10 -5 32 -12 41 -12 14z"/>
<path d="M3130 6401 c0 -6 4 -12 8 -15 5 -3 9 1 9 9 0 8 -4 15 -9 15 -4 0 -8
-4 -8 -9z"/>
<path d="M3442 6405 c-1 -5 5 -37 13 -70 8 -37 13 -49 13 -30 0 27 -25 124
-26 100z"/>
<path d="M3189 6363 c-13 -16 -12 -17 4 -4 16 13 21 21 13 21 -2 0 -10 -8 -17
-17z"/>
<path d="M3203 6323 c9 -2 23 -2 30 0 6 3 -1 5 -18 5 -16 0 -22 -2 -12 -5z"/>
<path d="M3128 6313 c7 -3 16 -2 19 1 4 3 -2 6 -13 5 -11 0 -14 -3 -6 -6z"/>
<path d="M3472 6240 c0 -19 2 -27 5 -17 2 9 2 25 0 35 -3 9 -5 1 -5 -18z"/>
<path d="M3921 6254 c0 -11 3 -14 6 -6 3 7 2 16 -1 19 -3 4 -6 -2 -5 -13z"/>
<path d="M3130 6250 c0 -5 4 -10 9 -10 6 0 13 5 16 10 3 6 -1 10 -9 10 -9 0
-16 -4 -16 -10z"/>
<path d="M3190 6256 c0 -2 7 -7 16 -10 8 -3 12 -2 9 4 -6 10 -25 14 -25 6z"/>
<path d="M3500 6250 c20 -13 33 -13 25 0 -3 6 -14 10 -23 10 -15 0 -15 -2 -2
-10z"/>
<path d="M2699 6190 c-46 -28 -91 -58 -99 -67 -8 -9 5 -2 30 14 25 17 74 47
110 67 36 20 60 36 54 36 -6 0 -49 -23 -95 -50z"/>
<path d="M3540 6236 c0 -2 35 -24 78 -50 42 -25 88 -53 102 -62 21 -14 21 -13
-3 8 -27 23 -162 108 -172 108 -3 0 -5 -2 -5 -4z"/>
<path d="M3260 6122 c0 -9 -17 -36 -38 -59 -30 -32 -39 -51 -40 -80 l-1 -38
13 30 c29 66 37 81 61 114 27 36 31 51 15 51 -5 0 -10 -8 -10 -18z"/>
<path d="M3071 6105 c-1 -33 30 -108 48 -120 6 -3 2 10 -9 30 -11 19 -20 46
-21 58 0 12 -4 31 -9 42 -7 17 -9 16 -9 -10z"/>
<path d="M3770 6085 c13 -14 26 -25 28 -25 3 0 -5 11 -18 25 -13 14 -26 25
-28 25 -3 0 5 -11 18 -25z"/>
<path d="M2529 6063 c-13 -16 -12 -17 4 -4 9 7 17 15 17 17 0 8 -8 3 -21 -13z"/>
<path d="M3626 6067 c3 -10 9 -15 12 -12 3 3 0 11 -7 18 -10 9 -11 8 -5 -6z"/>
<path d="M2665 6030 c-3 -5 -1 -10 4 -10 6 0 11 5 11 10 0 6 -2 10 -4 10 -3 0
-8 -4 -11 -10z"/>
<path d="M2285 6023 c-57 -13 -143 -46 -165 -64 -21 -17 -18 -16 25 4 70 34
126 49 225 57 l85 7 -75 0 c-41 1 -84 -1 -95 -4z"/>
<path d="M2390 5775 c-1 -5 -2 -13 -1 -17 0 -5 -6 -8 -14 -8 -8 0 -15 -8 -14
-17 0 -11 3 -13 6 -5 2 6 9 10 14 6 11 -7 23 21 16 38 -3 7 -6 9 -7 3z"/>
<path d="M4247 5710 c57 -58 77 -111 71 -197 -3 -37 -9 -77 -13 -88 -7 -17 -6
-18 6 -7 10 9 14 40 14 111 0 89 -2 101 -27 138 -15 23 -42 51 -60 64 -30 20
-29 18 9 -21z"/>
<path d="M2515 5733 c15 -11 16 -146 1 -155 -7 -5 -3 -8 10 -8 11 0 26 -6 33
-12 10 -11 11 -10 6 5 -4 9 -11 17 -15 17 -4 0 -7 31 -7 69 0 42 4 68 10 64 5
-3 8 0 5 8 -3 8 -15 15 -29 17 -13 2 -19 -1 -14 -5z"/>
<path d="M4096 5725 c-9 -26 -7 -32 5 -12 6 10 9 21 6 23 -2 3 -7 -2 -11 -11z"/>
<path d="M4413 5610 c0 -25 2 -35 4 -22 2 12 2 32 0 45 -2 12 -4 2 -4 -23z"/>
<path d="M3185 5610 c-3 -5 1 -10 9 -10 8 0 18 5 21 10 3 6 -1 10 -9 10 -8 0
-18 -4 -21 -10z"/>
<path d="M3650 5546 c-15 -39 -12 -46 6 -13 9 16 13 31 10 34 -3 3 -10 -6 -16
-21z"/>
<path d="M4401 5544 c0 -11 3 -14 6 -6 3 7 2 16 -1 19 -3 4 -6 -2 -5 -13z"/>
<path d="M4012 5534 c7 -7 45 -22 83 -34 39 -11 84 -30 100 -41 36 -25 70 -68
60 -77 -3 -3 -10 0 -15 8 -5 8 -14 16 -20 16 -5 1 -11 2 -12 4 -8 6 -46 5 -42
-1 2 -4 -8 -9 -23 -11 -22 -2 -29 -10 -34 -35 -3 -18 -3 -34 1 -35 16 -7 42
-108 42 -163 0 -33 3 -50 5 -37 2 13 10 21 16 19 13 -4 13 -20 2 -52 -5 -14 1
-11 19 10 l26 30 -19 -40 c-11 -22 -17 -42 -15 -44 5 -6 6 -5 44 54 17 28 29
42 26 33 -3 -10 -2 -18 3 -18 5 0 11 -9 14 -20 4 -16 -4 -27 -34 -47 -22 -14
-37 -28 -35 -31 7 -6 68 33 90 57 17 19 17 20 -3 31 -12 6 -19 16 -15 22 4 7
9 6 14 -2 4 -7 10 2 14 22 5 26 9 30 17 18 10 -16 7 6 -12 79 -12 49 -4 50 20
2 40 -77 45 -133 22 -224 -11 -45 -23 -100 -27 -122 -4 -22 -11 -48 -16 -58
-9 -18 -11 -18 -34 4 -13 12 -26 20 -29 17 -3 -3 7 -16 22 -29 19 -17 27 -32
25 -49 -2 -14 12 5 32 45 38 74 45 103 20 70 l-16 -20 5 20 c27 95 47 189 47
217 0 18 -9 64 -20 102 -11 38 -17 80 -14 92 3 12 1 31 -5 41 -9 14 -10 11 -5
-17 l5 -35 -14 31 c-17 36 -39 53 -45 36 -2 -7 -8 -12 -14 -12 -6 0 -6 6 2 15
10 12 4 23 -32 60 -37 40 -57 51 -141 79 -54 18 -92 27 -85 20z m295 -336 c-3
-8 -6 -5 -6 6 -1 11 2 17 5 13 3 -3 4 -12 1 -19z"/>
<path d="M2540 5507 l-24 -32 24 20 c14 11 28 24 31 29 4 4 10 3 13 -3 4 -6
13 -11 19 -11 7 0 3 7 -7 15 -26 20 -27 19 -56 -18z"/>
<path d="M2360 5516 c0 -2 7 -9 15 -16 13 -11 14 -10 9 4 -5 14 -24 23 -24 12z"/>
<path d="M4367 5468 c-16 -27 -26 -52 -23 -55 3 -3 13 11 22 31 10 20 21 36
25 36 8 0 74 -151 84 -193 4 -15 10 -26 12 -23 7 7 -24 98 -57 171 -15 33 -29
65 -31 72 -2 7 -17 -11 -32 -39z"/>
<path d="M2610 5500 c-8 -5 -10 -10 -5 -10 6 0 17 5 25 10 8 5 11 10 5 10 -5
0 -17 -5 -25 -10z"/>
<path d="M1936 5483 c-6 -14 -5 -15 5 -6 7 7 10 15 7 18 -3 3 -9 -2 -12 -12z"/>
<path d="M2170 5491 c-47 -15 -85 -39 -122 -79 -20 -22 -34 -42 -31 -46 3 -3
0 -8 -8 -10 -24 -9 -109 -13 -109 -6 0 3 7 28 16 54 24 70 11 67 -15 -4 -20
-55 -25 -60 -52 -60 -64 0 -105 -87 -60 -127 36 -33 46 -38 68 -35 59 9 91 81
57 130 -8 12 -11 22 -5 22 31 0 42 -101 14 -132 -15 -17 -15 -18 15 -18 21 0
32 -6 35 -17 4 -17 5 -17 6 0 1 17 10 21 46 17 31 -3 36 -13 20 -45 l-15 -30
27 33 c32 36 75 43 93 15 10 -16 11 -16 6 -1 -7 23 6 25 106 24 52 -1 87 3 85
9 -2 5 -26 8 -54 6 -47 -2 -52 0 -56 21 l-4 23 -2 -22 c0 -13 -6 -23 -12 -23
-7 0 -9 15 -4 43 14 93 15 97 38 94 17 -2 23 -10 28 -42 l6 -40 1 44 c2 42 3
43 32 39 20 -3 27 -1 21 5 -5 5 -43 9 -85 8 -76 -2 -80 0 -110 44 -13 18 -16
18 -40 5 -15 -8 -24 -20 -22 -27 4 -8 -3 -13 -17 -13 -13 0 -28 -5 -35 -12
-22 -22 -13 8 16 51 34 50 61 70 127 92 49 17 45 25 -5 10z m-158 -221 l-2
-55 18 54 c26 81 42 78 42 -8 0 -41 -4 -71 -10 -71 -5 0 -10 8 -10 17 0 15 -2
14 -15 -3 -13 -16 -16 -17 -25 -4 -6 10 -10 11 -10 3 0 -7 -12 -13 -26 -13
-25 0 -25 2 -19 43 14 94 16 98 38 95 19 -3 21 -9 19 -58z m130 30 c-1 -14 -2
-34 -2 -45 0 -32 -10 -65 -20 -65 -5 0 -7 17 -4 38 4 40 0 35 -10 -10 -11 -49
-23 -30 -15 25 4 28 8 60 8 70 1 13 7 17 24 15 17 -2 21 -9 19 -28z m39 13 c1
-17 2 -17 6 0 2 9 8 17 13 17 9 0 2 -131 -8 -140 -3 -3 -7 1 -10 9 -4 11 -6
11 -13 0 -4 -7 -11 -11 -14 -7 -10 9 6 138 16 138 5 0 10 -8 10 -17z m-284
-28 c0 -8 -4 -15 -9 -15 -10 0 -11 14 -1 23 9 10 10 9 10 -8z m-53 -16 c-4 -7
-7 -21 -8 -33 -1 -28 -32 -32 -46 -7 -12 24 -8 26 23 9 21 -11 21 -10 7 7 -8
10 -10 16 -4 12 7 -4 14 0 18 8 3 8 8 15 11 15 4 0 3 -5 -1 -11z m46 -13 c0
-3 -4 -8 -10 -11 -5 -3 -10 -1 -10 4 0 6 5 11 10 11 6 0 10 -2 10 -4z m20 -31
c-14 -17 -50 -20 -50 -5 0 6 6 10 14 10 7 0 20 7 27 16 9 11 15 12 17 5 2 -7
-2 -18 -8 -26z"/>
<path d="M1986 5295 c-3 -9 -5 -31 -5 -48 1 -27 3 -24 9 13 8 48 6 61 -4 35z"/>
<path d="M2116 5295 c-3 -8 -1 -15 4 -15 6 0 10 7 10 15 0 8 -2 15 -4 15 -2 0
-6 -7 -10 -15z"/>
<path d="M2336 5465 c16 -65 24 -81 18 -35 -3 25 -10 50 -15 55 -7 7 -8 0 -3
-20z"/>
<path d="M1950 5468 c0 -15 34 -70 38 -60 2 6 -6 24 -17 38 -12 15 -21 25 -21
22z"/>
<path d="M2430 5455 c8 -10 46 -39 83 -66 l68 -48 -38 -3 c-32 -3 -38 -7 -40
-28 -3 -25 -3 -25 7 -2 5 12 16 22 25 22 12 0 15 -13 16 -57 1 -64 4 -62 14
10 6 42 9 48 28 45 21 -3 22 -8 20 -75 l-2 -73 40 2 c22 1 35 5 28 8 -8 6 -9
23 -2 64 6 31 7 56 3 56 -4 0 -10 -27 -14 -60 -5 -42 -11 -60 -21 -60 -12 0
-14 15 -12 70 l2 69 42 -1 c24 0 40 -4 38 -8 -3 -5 6 -3 20 3 l25 12 -33 3
-32 4 30 14 c17 8 21 11 10 8 -11 -4 -46 -9 -77 -12 -63 -5 -96 9 -195 85 -26
20 -41 28 -33 18z"/>
<path d="M2010 5440 c0 -11 4 -20 9 -20 5 0 7 9 4 20 -3 11 -7 20 -9 20 -2 0
-4 -9 -4 -20z"/>
<path d="M3186 5447 c6 -18 50 -34 61 -23 4 3 -2 6 -12 6 -10 0 -27 8 -37 17
-18 16 -18 16 -12 0z"/>
<path d="M2308 5406 c9 -25 18 -43 20 -41 6 5 -21 85 -28 85 -4 0 0 -20 8 -44z"/>
<path d="M3136 5435 c-11 -8 -15 -15 -10 -15 6 0 15 5 22 12 9 9 12 -4 12 -59
0 -54 4 -74 17 -84 15 -13 15 -12 5 8 -7 12 -12 51 -12 87 0 36 -3 66 -7 66
-5 0 -17 -7 -27 -15z"/>
<path d="M3884 5420 c-5 -5 -34 -23 -64 -39 -30 -17 -51 -31 -47 -31 15 0 103
49 116 64 15 17 11 22 -5 6z"/>
<path d="M3281 5416 c2 -2 36 -6 74 -9 42 -3 58 -2 40 3 -30 8 -122 13 -114 6z"/>
<path d="M2269 5392 c6 -12 16 -24 22 -28 8 -4 8 -1 0 14 -6 12 -16 24 -22 28
-8 4 -8 1 0 -14z"/>
<path d="M2933 5403 c9 -2 25 -2 35 0 9 3 1 5 -18 5 -19 0 -27 -2 -17 -5z"/>
<path d="M2361 5360 c-1 -17 7 -28 24 -37 14 -6 25 -7 25 -2 0 13 34 11 50 -3
12 -11 12 -10 0 5 -10 13 -22 17 -40 14 -31 -7 -46 1 -53 28 -4 17 -5 16 -6
-5z"/>
<path d="M3574 5354 c39 -13 75 -24 80 -23 6 0 -20 11 -58 25 -39 13 -75 24
-80 23 -6 0 20 -11 58 -25z"/>
<path d="M2770 5310 c0 -16 5 -30 11 -30 7 0 9 10 5 25 -6 22 -3 25 20 25 20
0 25 -4 20 -16 -3 -8 -2 -12 4 -9 24 15 9 35 -25 35 -32 0 -35 -2 -35 -30z"/>
<path d="M2316 5295 c-3 -8 -1 -15 4 -15 6 0 10 -7 10 -15 0 -8 -4 -15 -10
-15 -5 0 -10 -9 -10 -20 0 -11 5 -20 10 -20 6 0 10 8 8 18 -2 11 3 16 16 15
13 -1 15 2 7 10 -6 6 -11 21 -11 34 0 26 -15 31 -24 8z"/>
<path d="M2591 5294 c0 -11 3 -14 6 -6 3 7 2 16 -1 19 -3 4 -6 -2 -5 -13z"/>
<path d="M3736 5283 c-6 -14 -5 -15 5 -6 7 7 10 15 7 18 -3 3 -9 -2 -12 -12z"/>
<path d="M4100 5248 c0 -62 5 -60 14 5 5 31 4 47 -3 47 -7 0 -11 -22 -11 -52z"/>
<path d="M2383 5282 c-8 -5 -8 -12 2 -25 15 -21 26 -11 16 15 -3 10 -11 14
-18 10z"/>
<path d="M2440 5269 c0 -5 5 -7 10 -4 6 3 10 8 10 11 0 2 -4 4 -10 4 -5 0 -10
-5 -10 -11z"/>
<path d="M2710 5260 c0 -5 5 -10 11 -10 5 0 7 5 4 10 -3 6 -8 10 -11 10 -2 0
-4 -4 -4 -10z"/>
<path d="M3010 5251 c-30 -10 -75 -28 -100 -41 -25 -13 -67 -31 -95 -41 -27
-10 -41 -18 -30 -19 11 0 65 21 120 46 55 25 127 51 160 59 38 9 49 14 30 14
-16 0 -55 -8 -85 -18z"/>
<path d="M3256 5260 c22 -5 58 -16 79 -24 21 -9 40 -15 42 -12 9 8 -98 46
-129 45 -32 -1 -32 -1 8 -9z"/>
<path d="M3739 5253 c-13 -16 -12 -17 4 -4 9 7 17 15 17 17 0 8 -8 3 -21 -13z"/>
<path d="M2770 5242 c0 -10 -6 -26 -14 -37 -13 -19 -11 -20 23 -21 20 -1 27 0
16 3 -17 3 -20 10 -17 38 2 19 1 35 -2 35 -3 0 -6 -8 -6 -18z"/>
<path d="M2812 5240 c0 -14 2 -19 5 -12 2 6 2 18 0 25 -3 6 -5 1 -5 -13z"/>
<path d="M2452 5230 c0 -14 2 -19 5 -12 2 6 2 18 0 25 -3 6 -5 1 -5 -13z"/>
<path d="M3176 5235 c-10 -7 -16 -18 -15 -23 2 -6 12 1 22 14 21 27 19 29 -7
9z"/>
<path d="M4493 5200 c0 -30 2 -43 4 -27 2 15 2 39 0 55 -2 15 -4 2 -4 -28z"/>
<path d="M2272 5220 c0 -14 2 -19 5 -12 2 6 2 18 0 25 -3 6 -5 1 -5 -13z"/>
<path d="M2510 5198 c0 -14 8 -18 33 -17 27 2 28 2 7 6 -14 3 -28 10 -32 17
-5 7 -8 5 -8 -6z"/>
<path d="M2376 5192 c-3 -4 4 -9 15 -9 23 -2 25 3 4 10 -8 4 -16 3 -19 -1z"/>
<path d="M2477 5189 c7 -7 15 -10 18 -7 3 3 -2 9 -12 12 -14 6 -15 5 -6 -5z"/>
<path d="M2700 5190 c0 -6 7 -10 15 -10 8 0 15 2 15 4 0 2 -7 6 -15 10 -8 3
-15 1 -15 -4z"/>
<path d="M3990 5181 c0 -12 -5 -32 -11 -44 -9 -20 -9 -20 4 -5 8 10 17 14 21
10 4 -4 4 7 0 23 -9 38 -14 44 -14 16z"/>
<path d="M1839 5128 c4 -28 6 -29 9 -9 2 13 0 27 -5 32 -6 6 -7 -3 -4 -23z"/>
<path d="M2085 5150 c-3 -5 -1 -10 4 -10 6 0 11 5 11 10 0 6 -2 10 -4 10 -3 0
-8 -4 -11 -10z"/>
<path d="M2120 5150 c0 -5 5 -10 11 -10 5 0 7 5 4 10 -3 6 -8 10 -11 10 -2 0
-4 -4 -4 -10z"/>
<path d="M2894 5138 l-19 -23 23 19 c21 18 27 26 19 26 -2 0 -12 -10 -23 -22z"/>
<path d="M3510 5151 c8 -6 28 -11 44 -11 39 0 31 6 -19 14 -29 5 -36 4 -25 -3z"/>
<path d="M4482 5120 c0 -14 2 -19 5 -12 2 6 2 18 0 25 -3 6 -5 1 -5 -13z"/>
<path d="M2741 5114 c0 -11 3 -14 6 -6 3 7 2 16 -1 19 -3 4 -6 -2 -5 -13z"/>
<path d="M4011 5120 c0 -8 9 -33 20 -55 10 -22 16 -29 13 -16 -10 37 -33 88
-33 71z"/>
<path d="M3583 5070 c0 -30 2 -43 4 -27 2 15 2 39 0 55 -2 15 -4 2 -4 -28z"/>
<path d="M4240 5115 c0 -5 5 -17 10 -25 5 -8 10 -10 10 -5 0 6 -5 17 -10 25
-5 8 -10 11 -10 5z"/>
<path d="M3904 5044 c-34 -35 -54 -59 -44 -54 20 11 90 82 103 105 12 22 8 18
-59 -51z"/>
<path d="M4471 5074 c0 -11 3 -14 6 -6 3 7 2 16 -1 19 -3 4 -6 -2 -5 -13z"/>
<path d="M2455 5041 c17 -18 48 -47 70 -64 47 -36 32 -20 -45 49 -32 28 -42
35 -25 15z"/>
<path d="M2755 5046 c8 -40 29 -68 67 -90 32 -18 32 -18 -6 16 -22 19 -46 50
-53 69 -11 29 -12 30 -8 5z"/>
<path d="M4461 4995 c-1 -28 2 -45 9 -45 6 0 8 5 5 10 -3 6 -4 10 -2 10 3 0
15 -19 27 -42 12 -24 32 -54 45 -68 13 -14 35 -45 49 -70 14 -25 26 -41 26
-37 0 15 -32 69 -76 129 -24 33 -49 79 -56 101 -17 60 -24 63 -27 12z"/>
<path d="M1858 5007 c-3 -19 -2 -25 4 -19 6 6 8 18 6 28 -3 14 -5 12 -10 -9z"/>
<path d="M3576 4993 c-6 -14 -5 -15 5 -6 7 7 10 15 7 18 -3 3 -9 -2 -12 -12z"/>
<path d="M1837 4958 c-3 -7 -28 -44 -56 -82 -28 -38 -51 -73 -51 -79 0 -6 27
27 60 73 54 75 68 100 56 100 -2 0 -6 -6 -9 -12z"/>
<path d="M3325 4946 c39 -6 77 -15 85 -20 12 -7 12 -6 4 3 -14 16 -78 31 -124
30 -23 -1 -11 -5 35 -13z"/>
<path d="M2920 4925 c-19 -14 -29 -25 -23 -25 7 0 15 5 19 11 3 6 20 17 38 25
17 7 24 13 15 14 -8 0 -30 -11 -49 -25z"/>
<path d="M3130 4946 c0 -2 8 -10 18 -17 15 -13 16 -12 3 4 -13 16 -21 21 -21
13z"/>
<path d="M2568 4928 c5 -7 13 -33 17 -58 l6 -45 -75 -39 c-62 -32 -82 -37
-111 -32 -34 7 -35 6 -24 -13 7 -11 29 -30 50 -43 l37 -23 -23 -27 c-12 -15
-26 -44 -30 -65 -3 -21 -16 -53 -28 -72 l-21 -34 29 7 c24 6 27 5 21 -11 -4
-10 -16 -49 -26 -87 -11 -38 -26 -79 -35 -92 -8 -13 -13 -24 -10 -24 9 0 118
62 144 82 34 26 41 22 30 -14 -13 -47 -11 -53 9 -35 10 10 21 17 24 17 12 0
-7 -68 -28 -95 -35 -47 -43 -76 -74 -280 -24 -158 -34 -200 -60 -250 -27 -53
-29 -61 -15 -71 14 -10 14 -13 0 -24 -21 -17 -19 -30 5 -30 27 0 27 -48 -2
-144 -13 -47 -18 -80 -13 -92 6 -14 10 -6 16 33 11 84 18 94 35 54 18 -43 18
-50 -1 -25 -14 18 -15 16 -9 -21 7 -46 25 -91 47 -119 13 -18 14 -16 12 20 -1
45 -9 78 -36 152 -10 29 -19 75 -19 102 0 40 -3 50 -17 50 -15 0 -15 1 0 18
22 24 21 29 -3 35 -18 5 -18 7 9 58 32 60 42 100 71 304 12 84 29 157 41 183
12 24 23 41 25 39 2 -2 0 -28 -5 -58 -12 -75 -14 -220 -3 -248 6 -18 13 7 26
105 9 71 20 136 23 144 3 8 12 -19 19 -61 14 -80 72 -254 82 -245 3 4 7 23 9
44 5 47 52 232 65 252 8 12 9 12 4 -2 -4 -13 0 -18 14 -18 32 0 45 -39 50
-155 l5 -110 29 75 c16 41 47 111 69 155 36 71 41 77 47 55 l7 -25 6 25 c3 14
3 -2 1 -35 l-4 -60 20 70 c11 39 24 89 30 113 10 37 14 42 39 42 25 0 28 -3
23 -26 -2 -14 -11 -28 -19 -31 -12 -5 -12 -7 -1 -15 8 -6 9 -11 3 -14 -11 -5
-13 -510 -2 -521 4 -3 7 21 7 54 0 56 2 61 20 56 15 -4 20 0 20 13 0 43 20 -7
30 -74 10 -71 6 -115 -11 -137 -4 -6 -11 -31 -15 -55 l-8 -45 -12 40 c-17 54
-17 27 0 -75 19 -113 29 -200 22 -200 -8 0 -77 41 -121 73 -58 41 -148 131
-186 187 -19 28 -40 52 -47 55 -7 3 -11 1 -9 -3 2 -4 17 -47 32 -97 57 -185
98 -242 228 -312 26 -15 47 -30 47 -36 0 -9 -202 -314 -291 -439 -35 -48 -43
-66 -29 -58 27 14 163 149 218 215 l42 50 -14 -45 c-13 -45 -121 -365 -132
-394 -3 -9 -2 -16 2 -16 28 0 203 313 234 418 7 23 15 40 17 38 6 -6 -64 -408
-87 -500 -24 -94 -112 -244 -195 -332 -5 -6 -26 -32 -45 -58 -19 -27 -46 -60
-60 -74 l-25 -26 50 29 c140 79 172 112 189 195 15 76 22 65 38 -66 9 -70 9
-99 0 -118 -16 -35 -240 -374 -252 -381 -6 -3 -10 -11 -10 -16 0 -10 131 101
203 173 21 21 44 38 51 38 16 0 36 -21 36 -36 0 -7 -48 -64 -106 -126 -93 -99
-144 -161 -144 -178 0 -3 35 -4 79 -2 l78 3 -4 72 -4 72 20 -58 c10 -31 26
-68 35 -82 27 -41 21 -45 -74 -45 -100 0 -101 -1 -75 -63 l15 -36 -48 5 c-41
5 -58 1 -131 -35 -47 -23 -97 -41 -111 -41 -14 0 -55 15 -90 34 l-64 34 61 -5
c74 -7 132 17 197 81 l41 41 -49 3 c-75 5 -174 -14 -327 -63 -158 -51 -159
-51 -286 6 -71 31 -163 89 -163 102 0 4 9 7 19 7 27 0 36 18 18 38 -26 30 -47
79 -63 148 -8 37 -22 80 -30 96 -14 27 -14 28 13 28 22 0 45 18 111 87 71 75
82 84 83 63 0 -14 2 -38 4 -55 2 -16 6 -75 9 -130 l6 -100 -60 -45 c-33 -24
-60 -46 -60 -48 0 -5 20 8 71 45 26 18 49 33 52 33 2 0 7 -11 9 -24 4 -19 -5
-30 -53 -62 -32 -22 -59 -43 -59 -47 0 -4 27 10 59 33 54 36 61 38 70 23 11
-20 50 -20 145 1 72 16 248 69 325 97 38 14 52 16 49 7 -28 -74 -59 -180 -55
-185 3 -3 15 27 27 67 12 40 24 70 27 67 4 -5 -12 -63 -34 -122 -2 -6 5 -11
15 -12 16 -1 24 15 47 105 15 59 32 111 36 117 14 15 11 -12 -10 -84 -39 -135
-32 -138 30 -13 33 68 58 126 55 129 -3 3 -15 -16 -27 -43 -31 -73 -60 -131
-56 -114 3 8 10 41 17 73 13 56 17 61 84 112 126 94 263 278 148 196 -30 -20
-132 -65 -229 -101 -35 -12 -61 -25 -59 -29 3 -4 -37 -8 -88 -9 -74 -3 -101 1
-138 17 -42 18 -46 18 -41 3 6 -15 4 -15 -15 2 -12 10 -19 23 -16 27 3 5 -2 6
-11 3 -14 -6 -14 -8 2 -21 28 -22 -7 -3 -59 34 -59 41 -68 42 -28 3 24 -24 29
-34 24 -59 -5 -21 0 -41 14 -65 21 -35 21 -35 1 -41 -11 -4 -31 -4 -44 -1 -13
3 -26 2 -30 -4 -7 -11 -35 -2 -35 12 0 5 6 6 13 2 7 -4 9 -3 4 2 -5 5 -13 9
-19 9 -6 0 -12 7 -13 15 -2 8 -19 41 -38 73 -51 84 -59 132 -37 218 10 39 21
73 23 76 3 2 3 -32 0 -76 -3 -45 -3 -81 1 -81 5 0 36 29 69 64 75 77 118 100
227 120 84 16 98 21 88 31 -6 6 -203 -41 -227 -55 -8 -4 -45 -39 -83 -76 -56
-56 -68 -64 -64 -44 11 52 16 170 7 170 -5 0 -25 -7 -45 -15 -20 -9 -60 -22
-89 -30 -34 -9 -43 -14 -26 -14 14 -1 48 6 74 14 27 8 50 13 51 12 1 -1 -7
-40 -19 -86 -18 -71 -28 -92 -67 -135 -100 -112 -116 -126 -149 -126 -36 0
-35 1 -17 -42 8 -18 22 -64 30 -103 9 -38 29 -91 45 -116 l29 -47 -32 -6 -31
-7 45 -39 c25 -21 62 -47 83 -56 38 -18 39 -18 33 -63 -3 -25 -9 -122 -12
-216 -5 -126 -11 -176 -22 -193 -11 -17 -12 -26 -4 -34 8 -8 2 -25 -19 -62
-17 -28 -53 -97 -82 -154 -40 -82 -61 -113 -102 -148 -28 -24 -63 -65 -77 -91
-45 -83 -62 -229 -32 -272 16 -22 22 -23 83 -18 74 6 212 50 293 93 45 25 58
38 83 89 27 55 38 66 105 105 l75 45 3 70 c2 39 -2 115 -8 170 -8 71 -9 100
-1 103 6 2 11 12 11 21 0 10 9 26 20 36 12 10 30 35 42 54 12 20 27 39 32 43
6 4 7 11 2 15 -4 4 -13 1 -19 -8 -7 -9 -27 -38 -45 -63 -17 -26 -39 -49 -47
-52 -20 -8 -92 6 -78 14 6 4 17 27 24 50 8 28 24 53 45 69 21 16 31 31 29 43
-2 13 7 28 28 44 17 14 28 28 24 32 -4 4 -23 -8 -43 -27 -33 -31 -35 -32 -26
-9 29 77 58 123 91 146 40 27 108 33 117 10 3 -8 -8 -49 -25 -91 -17 -42 -31
-85 -31 -96 0 -10 -5 -18 -12 -16 -15 3 -30 -74 -17 -88 5 -5 9 8 9 33 0 44 7
51 29 29 11 -10 12 -7 7 15 -4 17 1 46 15 80 12 29 27 68 34 87 11 29 21 37
66 51 30 9 82 31 116 48 66 34 95 38 139 22 25 -10 26 -9 20 12 -4 13 -9 38
-13 56 l-6 32 79 0 c95 0 117 10 91 38 -20 22 -57 133 -57 173 0 15 12 37 31
55 17 16 40 41 50 56 23 32 18 46 -37 115 l-34 41 36 59 c39 64 39 65 8 229
l-16 81 31 62 c40 79 59 160 121 521 28 162 53 296 54 298 10 9 31 -145 31
-224 0 -83 -2 -93 -27 -127 -38 -49 -36 -61 9 -42 20 8 38 14 39 12 2 -2 -10
-35 -26 -73 -16 -38 -25 -71 -19 -72 5 -2 24 1 41 7 17 6 32 10 33 9 1 -2 11
-50 23 -107 13 -58 36 -131 53 -164 l30 -60 -15 -106 c-22 -150 -21 -314 3
-366 10 -22 28 -49 40 -60 21 -18 22 -24 16 -160 -3 -77 -3 -145 2 -150 31
-38 297 -191 350 -201 32 -6 33 -8 33 -55 0 -53 4 -57 32 -32 10 9 19 14 21
12 1 -2 15 -31 32 -63 16 -32 53 -91 82 -131 29 -40 64 -101 78 -136 15 -35
33 -76 40 -92 16 -31 11 -52 -19 -85 -13 -15 -17 -25 -10 -30 6 -4 14 -52 18
-107 4 -60 13 -109 21 -122 9 -12 53 -41 100 -63 78 -37 87 -45 111 -91 20
-40 34 -55 68 -70 79 -35 258 -50 306 -26 31 16 53 86 44 144 -5 36 -20 58
-94 138 -68 73 -92 106 -105 147 -24 71 -50 123 -94 182 -21 30 -34 59 -33 72
2 12 -2 25 -8 29 -8 5 -10 1 -6 -12 8 -25 -24 -55 -89 -84 -66 -30 -198 -34
-203 -6 -3 13 3 17 27 17 16 0 33 -5 37 -11 16 -27 171 16 204 57 21 24 33
182 28 374 l-5 195 53 82 c55 83 90 117 136 128 l27 7 -30 40 c-40 56 -38 84
6 105 40 19 44 29 15 38 -11 3 -41 32 -67 63 -26 31 -73 83 -106 114 l-58 58
33 20 c39 23 30 27 -12 5 -17 -9 -30 -20 -30 -25 0 -5 25 -32 55 -61 30 -29
71 -73 90 -98 20 -25 49 -55 65 -66 17 -11 30 -23 30 -26 0 -3 -16 -13 -35
-22 -43 -21 -44 -41 -5 -95 l30 -42 -37 -15 c-50 -21 -77 -48 -113 -111 -52
-92 -82 -119 -180 -158 -50 -20 -102 -36 -116 -36 -15 0 -53 19 -90 45 -110
79 -264 141 -264 107 0 -5 -7 -17 -15 -28 -15 -19 -16 -19 -14 1 4 54 3 54
-71 53 -38 0 -70 -4 -70 -9 0 -5 10 -9 23 -9 12 0 28 -4 36 -9 11 -7 7 -13
-20 -25 -19 -9 -25 -14 -14 -10 11 3 36 8 55 10 l35 4 -37 -18 c-48 -22 -50
-36 -3 -16 44 18 55 18 55 -2 0 -11 6 -13 19 -9 13 4 50 -9 101 -35 76 -38 86
-41 137 -34 72 9 65 -5 -25 -50 -37 -19 -88 -53 -114 -75 l-47 -42 -3 47 -3
46 -60 23 c-98 37 -307 164 -320 194 -8 20 7 221 16 221 5 0 9 -13 9 -29 0
-44 17 -80 42 -90 13 -5 57 -11 98 -15 l75 -7 -35 20 c-19 10 -85 70 -147 133
-125 128 -133 145 -133 268 1 73 24 277 33 286 2 3 6 -29 9 -70 3 -43 11 -83
19 -92 15 -19 157 -88 203 -98 26 -6 28 -5 17 8 -7 9 -18 13 -24 9 -5 -3 -7
-1 -4 4 4 6 -18 36 -48 67 -61 64 -174 221 -209 293 -13 26 -34 96 -47 156
-23 111 -29 119 -71 96 -11 -6 -22 -9 -24 -6 -2 2 9 34 26 71 33 74 36 91 18
83 -63 -23 -71 -18 -37 23 14 16 19 19 15 8 -7 -24 7 -23 29 2 10 11 21 20 25
20 9 0 -1 -47 -24 -108 l-16 -44 29 31 c16 17 32 31 35 31 5 0 48 -64 113
-168 20 -33 27 -22 9 14 -9 15 -13 38 -10 49 3 12 -5 46 -16 76 -12 30 -41
108 -64 175 -24 66 -48 129 -54 140 -10 16 -11 14 -8 -14 2 -19 0 -30 -4 -25
-12 13 -33 84 -26 90 3 4 1 13 -6 22 -6 9 0 5 13 -9 14 -14 32 -36 42 -50 30
-44 119 -130 134 -130 9 0 11 5 7 13 -4 6 3 3 16 -8 l23 -20 -7 20 c-6 16 -5
17 5 8 10 -10 9 -15 -1 -28 -10 -12 -10 -18 0 -30 7 -9 18 -14 24 -12 6 3 19
0 29 -5 31 -16 18 9 -34 66 -28 30 -56 54 -62 53 -6 -1 -16 9 -23 24 -7 14
-29 39 -48 57 -28 26 -37 29 -43 17 -13 -23 -74 74 -80 128 -5 42 -3 45 43 86
26 23 54 39 61 37 7 -3 30 18 54 52 23 31 47 63 53 71 9 12 8 13 -3 7 -7 -5 9
20 36 56 47 59 89 128 80 128 -3 0 -28 -31 -58 -70 -49 -64 -71 -89 -53 -57
10 16 -107 -92 -124 -115 -7 -10 -10 -23 -6 -29 3 -6 -20 -36 -51 -66 -51 -49
-59 -54 -67 -38 -10 17 8 134 22 145 3 3 26 86 49 185 64 268 67 420 11 605
-10 33 -15 60 -11 60 13 0 129 -126 147 -160 10 -19 28 -78 39 -130 l22 -94
22 59 c14 36 20 71 17 87 -3 16 -1 28 4 28 14 0 13 27 -1 32 -12 4 -24 134
-21 226 1 35 -3 52 -11 52 -9 0 -9 2 1 9 11 6 11 10 0 19 -7 5 -17 10 -23 10
-5 0 -10 5 -11 12 -2 6 -1 7 3 0 3 -6 12 -2 21 9 10 10 40 27 67 37 28 10 61
24 75 31 18 9 26 9 31 1 11 -18 3 -26 -62 -58 -32 -17 -59 -32 -59 -35 0 -3
23 4 51 16 29 11 54 17 58 14 3 -4 6 -48 6 -98 1 -99 10 -141 27 -131 7 4 8 2
4 -4 -4 -7 -2 -20 3 -29 6 -10 11 -12 11 -5 0 18 17 15 24 -5 10 -31 56 -107
79 -131 24 -27 101 -82 113 -82 4 0 -6 15 -23 33 -45 48 -87 107 -75 107 5 0
26 -7 45 -15 49 -20 50 -20 31 18 -10 17 -27 66 -39 107 -13 41 -26 84 -30 95
-6 19 -6 19 8 2 8 -10 26 -55 41 -100 19 -62 34 -91 61 -117 19 -18 35 -38 35
-42 0 -4 -20 -8 -44 -8 -25 0 -47 -4 -51 -9 -3 -5 24 -33 59 -63 60 -49 63
-54 43 -61 -23 -9 -139 -3 -172 9 -14 5 -17 4 -10 -4 6 -6 26 -14 45 -19 29
-8 41 -20 75 -79 22 -39 50 -84 62 -101 22 -29 22 -33 8 -67 -29 -68 -12 -150
61 -303 37 -78 83 -125 197 -201 37 -25 66 -46 64 -48 -1 -2 -36 6 -77 16
-115 30 -145 25 -99 -16 18 -16 93 -117 112 -150 4 -7 -22 -2 -61 11 -87 30
-263 64 -232 46 9 -5 56 -17 105 -26 50 -10 114 -26 143 -37 29 -11 57 -18 62
-16 10 3 -66 126 -103 166 -20 21 -20 22 -1 22 10 0 57 -9 104 -20 46 -10 86
-17 89 -14 6 5 11 1 -91 68 -147 97 -207 180 -259 359 -23 77 -23 77 -4 132
18 55 18 55 -2 78 -24 26 -93 149 -93 165 0 7 17 12 43 12 76 0 79 14 14 73
-32 28 -57 55 -57 60 0 4 20 7 43 7 24 0 46 3 49 6 4 3 -13 24 -36 48 -34 34
-48 58 -70 131 -16 50 -37 99 -47 110 -24 27 -39 69 -39 110 0 21 -9 44 -25
63 -13 16 -22 32 -18 35 3 4 0 13 -7 22 -7 8 -9 15 -4 15 5 0 27 -31 49 -68
l40 -67 3 80 c2 59 -3 99 -17 145 l-20 65 40 -44 c22 -24 41 -42 43 -40 2 2
-7 43 -19 92 -12 48 -18 90 -14 93 5 3 24 2 44 -2 19 -3 35 -4 35 -1 0 10 -95
65 -133 77 -32 10 -37 15 -32 33 4 17 2 16 -6 -3 -28 -61 -33 -70 -41 -70 -5
0 -6 4 -3 10 8 13 -23 1 -56 -21 -14 -10 -30 -15 -34 -11 -5 4 -5 1 -1 -6 12
-20 -17 -24 -61 -9 -24 8 -47 11 -56 6 -12 -7 -15 -3 -13 24 2 17 -3 50 -11
72 -13 39 -13 39 -7 5 13 -72 5 -100 -29 -101 -21 0 -21 -1 -2 -10 17 -8 16
-8 -5 -3 -39 10 -151 5 -144 -7 2 -5 12 -6 22 -3 9 3 0 -4 -21 -16 -31 -17
-44 -19 -73 -11 -32 9 -37 8 -41 -10 -3 -10 -8 -19 -11 -19 -7 0 -52 54 -52
63 0 5 -13 -1 -30 -13 -18 -13 -30 -17 -30 -9 0 9 -4 8 -15 -1 -12 -10 -16 -9
-21 4 -6 15 -7 15 -19 -1 -11 -15 -16 -16 -36 -5 -68 37 -94 86 -78 145 4 15
3 25 -1 22 -15 -9 -22 -69 -11 -97 9 -23 8 -26 -6 -21 -10 4 -14 2 -10 -4 4
-7 -2 -10 -17 -9 -13 0 -22 4 -20 7 1 3 -3 6 -11 6 -11 0 -12 -5 -3 -21 6 -13
-5 -6 -29 17 -44 42 -46 43 -67 22 -14 -14 -18 -14 -43 2 -15 10 -24 12 -20 6
5 -7 4 -13 -2 -13 -10 0 -21 32 -36 105 -12 55 -16 65 -27 65 -7 0 -7 -4 0
-12z m-8 -142 c0 -2 -7 -7 -16 -10 -8 -3 -12 -2 -9 4 6 10 25 14 25 6z m1290
-16 c11 -7 7 -10 -17 -10 -20 0 -33 -5 -33 -12 0 -9 -4 -8 -10 2 -7 11 -4 17
13 22 31 9 30 9 47 -2z m-1330 -6 c0 -3 -16 -12 -36 -20 -44 -18 -41 -22 14
-25 23 -2 42 -6 42 -10 0 -5 -18 -23 -40 -40 -51 -42 -54 -61 -5 -46 19 6 35
14 35 19 0 5 -4 6 -10 3 -5 -3 -10 -4 -10 -1 0 8 60 32 101 41 l34 7 -19 -21
c-11 -12 -49 -41 -85 -65 -36 -24 -78 -58 -94 -75 -15 -17 -31 -31 -36 -31
-17 0 39 135 65 158 14 13 25 24 23 26 -2 2 -26 14 -54 26 l-50 23 42 8 c24 4
51 13 60 18 21 12 23 13 23 5z m1262 -57 c21 -11 40 -29 43 -39 19 -66 19 -65
-19 -29 -20 19 -39 32 -42 28 -4 -4 3 -36 14 -72 12 -36 25 -98 28 -137 l6
-73 -35 59 c-31 54 -40 95 -16 80 5 -3 9 15 9 40 0 25 -4 46 -9 46 -4 0 -7
-13 -5 -30 2 -16 0 -30 -5 -30 -4 0 -11 25 -15 55 -3 31 -12 73 -20 96 -14 39
-13 40 8 33 11 -3 38 -16 58 -27z m-228 -20 c17 -13 16 -16 -22 -58 -23 -24
-44 -41 -47 -37 -4 4 7 22 24 40 17 18 31 38 31 43 -1 12 -109 -106 -110 -119
0 -5 11 1 25 14 17 16 25 19 25 10 0 -8 24 10 54 39 l54 54 29 -21 c29 -21 78
-72 103 -107 8 -11 -9 1 -37 28 -38 34 -60 47 -82 47 -38 0 -133 -64 -177
-120 -19 -23 -34 -36 -34 -28 0 9 -3 31 -6 49 -4 19 -3 31 1 26 5 -4 19 11 32
33 15 25 29 38 36 34 7 -4 9 -3 4 1 -7 8 59 85 73 85 3 0 14 -6 24 -13z m-384
-37 c0 -5 -4 -10 -9 -10 -6 0 -13 5 -16 10 -3 6 1 10 9 10 9 0 16 -4 16 -10z
m195 -49 c-3 -2 -5 1 -5 7 0 24 -26 11 -73 -35 -35 -34 -48 -42 -45 -28 4 25
-6 24 -111 -14 -131 -47 -150 -66 -219 -221 -28 -62 -52 -94 -98 -133 -21 -17
-21 -17 -17 8 3 13 8 23 12 21 13 -8 10 93 -5 163 -19 87 -15 138 14 201 15
32 19 37 14 15 -12 -52 3 -279 18 -270 4 3 13 33 20 67 12 64 41 131 61 144 7
4 10 1 7 -7 -3 -8 -1 -22 4 -33 7 -13 7 -16 -1 -12 -5 4 -17 -7 -26 -23 -18
-36 -19 -45 -2 -35 9 6 9 4 1 -7 -6 -8 -14 -27 -17 -44 -3 -16 -8 -41 -11 -55
-10 -37 39 68 56 122 8 26 12 52 7 59 -11 19 11 56 40 68 38 15 98 28 161 36
30 4 73 16 94 26 45 22 52 19 36 -11 -21 -39 2 -36 39 6 l36 42 7 -26 c4 -14
5 -28 3 -31z m12 -33 c-3 -8 -6 -5 -6 6 -1 11 2 17 5 13 3 -3 4 -12 1 -19z
m-783 -15 c-28 -43 -74 -135 -74 -149 0 -11 -131 -106 -137 -100 -5 4 48 161
62 186 8 14 14 21 15 17 0 -4 15 3 33 17 32 24 93 55 111 56 4 0 0 -12 -10
-27z m171 -12 c-46 -28 -60 -50 -85 -126 -25 -77 -49 -129 -75 -160 -15 -19
-16 -16 -11 46 4 36 3 69 -1 72 -4 4 -20 -5 -35 -20 -16 -16 -27 -21 -24 -13
3 8 7 31 10 50 8 54 33 106 62 129 55 43 61 24 28 -87 -19 -66 0 -58 38 16 32
62 82 112 112 112 6 0 -2 -8 -19 -19z m860 9 c4 -6 -1 -7 -11 -3 -11 4 -15 2
-11 -4 6 -10 -43 -23 -91 -23 -27 0 -20 17 12 30 29 12 94 12 101 0z m3 -52
c-7 -33 -91 -57 -145 -43 l-28 8 30 9 c128 40 146 44 143 26z m-305 -12 c5
-14 -3 -24 -28 -39 -9 -4 -13 37 -6 51 4 8 30 0 34 -12z m-230 -16 c4 -16 0
-20 -19 -20 -36 0 -30 35 7 39 4 1 9 -8 12 -19z m482 -35 c-16 -8 -39 -14 -50
-14 -11 1 -2 7 20 14 52 17 68 17 30 0z m-480 -44 c40 -9 39 -9 -17 -10 -33 0
-58 3 -58 9 0 12 20 12 75 1z m185 -31 c0 -5 -4 -10 -10 -10 -5 0 -10 5 -10
10 0 6 5 10 10 10 6 0 10 -4 10 -10z m63 -25 c1 -5 -6 -11 -15 -13 -11 -2 -18
3 -18 13 0 17 30 18 33 0z m-214 -11 c13 -11 -54 -21 -100 -14 -30 4 -46 8
-36 9 9 0 17 5 17 10 0 9 109 4 119 -5z m82 -369 c13 9 11 -29 -6 -96 -9 -33
-13 -64 -10 -69 3 -5 1 -11 -5 -15 -5 -3 -11 -25 -11 -48 l-1 -42 -9 50 c-10
52 -6 97 14 200 7 36 13 51 15 37 2 -12 8 -20 13 -17z m-50 -642 l-5 -48 -7
40 c-12 62 -11 79 4 67 8 -7 11 -27 8 -59z m79 -396 c0 -5 -4 -5 -10 -2 -5 3
-10 14 -10 23 0 15 2 15 10 2 5 -8 10 -19 10 -23z m-960 -1127 c0 -11 -22 -18
-37 -13 -20 8 -3 31 18 26 10 -3 19 -9 19 -13z m300 -295 c-17 -59 -24 -52 -9
9 6 26 14 44 17 42 2 -3 -1 -26 -8 -51z m1785 -418 c-1 -111 -5 -209 -10 -219
-7 -11 -11 62 -13 215 -2 185 0 229 10 219 10 -10 13 -66 13 -215z m-2358
-109 c-1 -51 -3 -12 -3 87 0 99 2 141 3 93 2 -48 2 -129 0 -180z m2056 175
c17 -20 78 -148 97 -206 6 -21 9 -55 6 -75 -4 -25 -3 -31 3 -17 7 17 10 14 16
-18 5 -24 3 -43 -3 -49 -12 -12 -93 -29 -104 -22 -4 3 -21 34 -37 69 -17 36
-48 88 -71 116 -40 51 -116 178 -109 183 5 3 150 33 170 35 9 0 23 -7 32 -16z
m-1787 -158 c-1 -8 -5 -17 -8 -21 -5 -4 -4 16 1 34 3 9 9 -1 7 -13z m-274
-139 c7 4 8 2 4 -4 -4 -7 7 -19 26 -29 26 -14 54 -18 141 -17 129 1 145 -12
34 -29 -42 -7 -164 19 -203 43 -32 20 -43 47 -26 64 4 4 8 -2 10 -13 2 -12 8
-18 14 -15z m-42 -76 c-6 -11 -13 -20 -16 -20 -2 0 0 9 6 20 6 11 13 20 16 20
2 0 0 -9 -6 -20z m306 -112 c9 -120 6 -168 -9 -186 -6 -8 -33 -25 -59 -38
l-49 -25 7 28 c4 15 11 36 16 46 5 10 5 17 -1 17 -9 0 -27 -43 -51 -122 -15
-48 -91 -133 -144 -160 -96 -49 -266 -77 -266 -44 0 26 11 45 24 40 22 -8 130
72 175 129 44 58 71 73 117 64 20 -4 24 -1 18 12 -20 48 -15 70 52 199 l67
131 41 4 c23 2 44 4 47 5 4 1 10 -44 15 -100z m2201 -46 c20 -40 33 -76 29
-79 -3 -3 -11 9 -18 28 -6 19 -26 63 -45 99 -18 36 -26 56 -17 45 9 -11 32
-53 51 -93z m-2554 73 c-3 -9 -8 -14 -10 -11 -3 3 -2 9 2 15 9 16 15 13 8 -4z
m2297 -37 c12 -20 16 -37 11 -47 -5 -9 -13 -37 -19 -62 -7 -26 -14 -54 -18
-63 -3 -9 -2 -16 3 -16 5 0 18 32 28 72 10 40 21 66 23 59 2 -7 -1 -31 -8 -52
-18 -52 0 -75 25 -33 14 25 13 14 -2 -23 -3 -7 -1 -13 5 -13 5 0 13 8 16 17 6
14 8 14 22 -5 8 -12 24 -22 35 -22 21 0 25 -10 8 -27 -9 -9 2 -19 45 -39 31
-15 89 -57 129 -94 40 -37 81 -69 92 -71 13 -3 22 -16 26 -38 l7 -33 -87 4
c-134 6 -238 65 -316 178 -19 28 -31 37 -36 29 -6 -10 -17 -8 -49 6 -60 27
-70 47 -70 137 0 42 -4 79 -9 82 -5 4 0 24 12 46 20 37 25 40 65 40 37 0 45
-4 62 -32z m-2333 -50 c-14 -31 -30 -59 -37 -63 -6 -4 -2 12 10 34 11 23 25
53 31 68 5 14 12 23 15 21 3 -3 -6 -30 -19 -60z m-57 -103 c0 -8 -6 -15 -13
-15 -33 0 -105 -110 -138 -210 l-19 -55 6 50 c9 77 39 135 101 193 31 28 58
52 60 52 2 0 3 -7 3 -15z m454 -50 c-4 -8 -14 -15 -23 -15 -14 1 -13 3 3 15
25 19 27 19 20 0z m-84 -38 c0 -2 -11 -13 -25 -25 -15 -13 -25 -17 -25 -9 0
10 8 17 48 36 1 0 2 0 2 -2z m2008 -83 c-6 -5 -98 39 -98 48 0 4 23 -4 51 -18
28 -14 49 -28 47 -30z m492 -34 c6 -15 10 -41 8 -56 l-4 -29 -7 28 c-4 15 -9
38 -12 51 -3 14 -17 39 -32 58 l-27 33 31 -29 c17 -15 37 -41 43 -56z m-2590
-4 c0 -2 -8 -10 -17 -17 -16 -13 -17 -12 -4 4 13 16 21 21 21 13z m2231 -83
c13 -16 12 -17 -3 -4 -17 13 -22 21 -14 21 2 0 10 -8 17 -17z m-2356 -23 c-3
-5 -12 -10 -18 -10 -7 0 -6 4 3 10 19 12 23 12 15 0z m-282 -23 c3 -8 -4 -13
-22 -14 -14 0 -18 1 -8 4 9 2 17 9 17 14 0 13 7 11 13 -4z m217 -2 c-46 -18
-64 -17 -25 0 17 8 37 14 45 14 8 0 -1 -7 -20 -14z m2683 -19 c37 -3 65 -2 63
3 -3 4 1 8 8 8 8 0 12 -6 9 -14 -4 -10 -30 -13 -102 -13 -53 0 -106 3 -118 6
-38 10 -14 25 30 20 23 -3 73 -8 110 -10z m-2844 -22 c9 -9 -75 -3 -89 6 -10
6 1 7 35 4 28 -4 52 -8 54 -10z"/>
<path d="M3409 4513 c-13 -16 -12 -17 4 -4 9 7 17 15 17 17 0 8 -8 3 -21 -13z"/>
<path d="M2905 4468 l-16 -33 20 25 c20 24 26 40 16 40 -2 0 -12 -15 -20 -32z"/>
<path d="M2620 4510 c-9 -6 -10 -10 -3 -10 6 0 15 5 18 10 8 12 4 12 -15 0z"/>
<path d="M3179 4913 c-13 -16 -12 -17 4 -4 16 13 21 21 13 21 -2 0 -10 -8 -17
-17z"/>
<path d="M4220 4852 c12 -18 25 -31 28 -27 3 3 -7 18 -23 33 l-28 27 23 -33z"/>
<path d="M4445 4871 c-9 -15 15 -25 28 -12 9 9 7 10 -7 5 -13 -5 -17 -4 -12 4
4 7 5 12 2 12 -3 0 -7 -4 -11 -9z"/>
<path d="M2000 4865 c0 -15 45 -86 48 -77 2 7 -6 28 -18 47 -20 32 -30 42 -30
30z"/>
<path d="M2090 4845 c-7 -9 -10 -18 -7 -21 3 -3 10 4 17 15 13 25 8 27 -10 6z"/>
<path d="M2140 4845 c0 -12 9 -48 21 -80 36 -101 18 -184 -63 -302 -16 -24
-25 -43 -21 -43 4 0 20 19 34 43 83 133 95 206 55 327 -14 41 -25 66 -26 55z"/>
<path d="M4176 4810 c-22 -56 -19 -65 5 -11 11 24 18 46 15 48 -2 2 -11 -14
-20 -37z"/>
<path d="M1856 4825 c-11 -8 -15 -15 -10 -15 6 0 19 7 30 15 10 8 15 14 9 14
-5 0 -19 -6 -29 -14z"/>
<path d="M4425 4814 c-18 -15 -23 -23 -12 -20 13 4 16 2 10 -7 -8 -13 -13 -37
-8 -37 7 0 75 42 75 46 0 2 -9 3 -19 1 -11 -1 -19 3 -18 8 1 6 10 9 20 7 16
-2 17 0 3 13 -18 19 -16 20 -51 -11z m20 -34 c-3 -5 -12 -10 -18 -10 -7 0 -6
4 3 10 19 12 23 12 15 0z"/>
<path d="M1711 4734 c0 -11 3 -14 6 -6 3 7 2 16 -1 19 -3 4 -6 -2 -5 -13z"/>
<path d="M4151 4734 c0 -11 3 -14 6 -6 3 7 2 16 -1 19 -3 4 -6 -2 -5 -13z"/>
<path d="M2930 4736 c0 -3 9 -10 20 -16 11 -6 20 -8 20 -6 0 3 -9 10 -20 16
-11 6 -20 8 -20 6z"/>
<path d="M4447 4721 c3 -12 1 -27 -5 -34 -5 -6 -13 -30 -16 -51 -13 -67 -58
-167 -74 -161 -8 3 -26 8 -40 12 -25 6 -26 5 -12 -11 13 -16 12 -20 -5 -32
-28 -20 -30 -19 -66 36 -18 28 -34 50 -36 50 -6 0 19 -43 45 -77 13 -18 20
-33 15 -33 -5 0 -17 -6 -27 -13 -17 -12 -17 -15 8 -51 14 -22 26 -51 26 -65 0
-14 3 -43 6 -63 6 -36 5 -38 -20 -38 -30 0 -30 0 -12 -45 13 -31 13 -35 -5
-47 -17 -11 -18 -17 -9 -45 10 -29 9 -36 -14 -65 -14 -19 -30 -56 -36 -83 -5
-28 -18 -67 -27 -88 -14 -33 -15 -40 -2 -48 8 -5 21 -9 29 -9 12 1 11 4 -4 15
-17 13 -17 17 -3 62 8 26 20 66 26 89 6 22 23 51 37 65 15 13 24 19 21 13 -4
-6 2 -19 13 -29 18 -16 23 -17 48 -5 15 7 34 13 42 12 11 -1 11 0 2 4 -20 9 5
34 37 36 14 0 4 4 -24 8 l-50 7 62 0 62 0 -27 -20 c-44 -33 -47 -37 -31 -37 8
0 30 14 48 31 24 22 41 29 58 26 15 -3 21 -1 15 5 -14 14 -215 23 -239 10 -29
-16 -39 11 -15 43 33 46 160 66 285 46 l48 -8 -37 34 c-32 29 -36 37 -30 65 3
18 21 48 39 66 21 23 25 31 12 25 -25 -13 -46 -6 -38 13 3 8 23 17 44 20 21 4
39 10 39 15 0 4 -30 17 -66 29 -70 21 -197 27 -224 10 -12 -8 -10 -10 10 -10
27 -1 28 1 -35 -45 -19 -14 -19 -15 8 -9 l28 6 -7 -83 c-6 -75 -9 -87 -35
-111 -33 -33 -35 -34 -42 -9 -3 13 2 21 16 25 18 4 19 11 15 81 -4 58 -10 83
-28 107 -25 34 -23 37 43 65 25 10 36 20 33 29 -7 17 -11 18 57 -6 62 -22 78
-19 123 22 21 19 21 19 27 -1 6 -25 27 -27 67 -6 41 21 38 25 -7 10 -43 -15
-53 -12 -53 16 l0 21 -33 -21 c-27 -16 -36 -18 -47 -8 -10 10 -12 9 -7 -5 5
-14 1 -16 -25 -13 -16 2 -32 5 -33 7 -2 2 7 35 21 73 13 39 24 61 24 50 l1
-20 8 20 c5 11 11 43 15 71 5 39 3 54 -8 63 -12 10 -13 9 -9 -8z"/>
<path d="M1882 4700 c0 -14 2 -19 5 -12 2 6 2 18 0 25 -3 6 -5 1 -5 -13z"/>
<path d="M2073 4670 c-13 -49 -7 -52 13 -5 16 40 17 45 6 45 -4 0 -13 -18 -19
-40z"/>
<path d="M4142 4685 c0 -16 2 -22 5 -12 2 9 2 23 0 30 -3 6 -5 -1 -5 -18z"/>
<path d="M1703 4615 c0 -44 2 -61 4 -37 2 23 2 59 0 80 -2 20 -4 1 -4 -43z"/>
<path d="M1895 4640 c3 -5 8 -10 11 -10 2 0 4 5 4 10 0 6 -5 10 -11 10 -5 0
-7 -4 -4 -10z"/>
<path d="M4151 4630 c0 -8 6 -28 14 -45 17 -39 18 -21 0 25 -7 19 -14 28 -14
20z"/>
<path d="M4475 4570 c-3 -5 -1 -10 4 -10 6 0 11 5 11 10 0 6 -2 10 -4 10 -3 0
-8 -4 -11 -10z"/>
<path d="M1924 4545 c3 -16 7 -37 10 -45 5 -13 -10 -15 -103 -15 -102 0 -110
1 -114 20 -2 11 -3 8 -2 -7 1 -21 -6 -29 -32 -42 -40 -19 -40 -26 -8 -65 25
-29 25 -31 10 -60 -19 -37 -19 -45 0 -37 16 6 15 9 37 -114 9 -52 11 -86 4
-113 -9 -33 -7 -40 16 -65 30 -30 68 -162 68 -231 0 -23 7 -58 15 -78 8 -19
15 -54 15 -78 0 -37 5 -47 45 -83 25 -22 45 -50 45 -60 0 -20 75 -127 107
-153 9 -8 -6 15 -34 51 -46 59 -50 67 -35 78 16 11 16 11 0 6 -13 -4 -21 2
-28 22 -6 16 -21 49 -33 74 -12 25 -20 49 -19 53 1 5 -2 6 -8 2 -7 -5 -9 15
-6 62 5 61 4 63 -4 20 -12 -69 -20 -70 -21 -1 -1 41 -3 51 -8 34 -6 -22 -8
-23 -14 -7 -4 10 -7 40 -7 65 0 26 -11 84 -24 129 l-23 82 43 17 c42 16 101
13 90 -5 -3 -5 4 -11 15 -14 16 -4 19 -11 14 -26 -11 -35 -16 -71 -9 -71 3 0
15 10 26 23 l20 22 -16 -25 c-21 -32 -20 -39 4 -37 14 1 18 6 15 18 -3 10 -1
20 4 24 6 3 8 0 5 -9 -6 -15 10 -16 36 -2 8 4 4 -2 -9 -13 -13 -12 -21 -24
-18 -27 3 -3 20 8 38 25 39 38 44 39 22 4 l-17 -28 30 28 c30 27 51 36 39 17
-8 -13 6 -13 25 0 13 9 13 11 0 20 -13 9 -13 11 0 20 18 11 24 -1 40 -80 6
-30 19 -66 30 -80 18 -24 18 -23 -1 35 -11 33 -24 78 -29 101 -6 23 -25 61
-44 85 -30 40 -32 47 -20 64 19 26 17 42 -5 48 -24 6 -37 61 -23 97 7 19 6 31
-4 44 -12 18 -13 17 -13 -10 0 -16 -1 -45 -1 -64 -1 -38 16 -77 36 -82 10 -2
10 -6 0 -20 -9 -12 -38 -20 -97 -27 -46 -6 -85 -16 -87 -21 -2 -6 -20 -10 -41
-10 -20 0 -54 -9 -74 -19 l-38 -19 -16 24 c-13 20 -13 29 -3 53 10 24 8 49 -6
131 -10 57 -23 104 -30 107 -9 3 -10 12 -2 35 9 27 8 33 -10 47 -60 45 38 97
163 87 39 -3 83 -8 99 -12 26 -6 28 -5 22 12 -6 15 -3 14 18 -5 14 -14 28 -22
31 -19 3 3 -9 18 -27 33 -30 25 -33 26 -39 9 -5 -15 -10 -7 -23 31 -9 28 -14
37 -12 20z m216 -577 c0 -6 -7 -5 -15 2 -8 7 -15 17 -15 22 0 6 7 5 15 -2 8
-7 15 -17 15 -22z m-25 -27 c1 -14 -4 -17 -19 -13 -11 3 -15 7 -8 10 6 2 12
11 12 20 0 21 13 6 15 -17z m-224 -383 c14 -26 -7 -23 -25 4 -22 31 -21 61 0
33 9 -11 20 -28 25 -37z"/>
<path d="M4471 4541 c-8 -6 -9 -11 -3 -15 6 -3 14 -1 17 5 9 14 2 20 -14 10z"/>
<path d="M4665 4498 c-26 -17 -26 -18 -6 -13 21 7 23 5 17 -16 -17 -61 -18
-79 -5 -79 7 0 1 -12 -14 -28 -34 -35 -47 -79 -47 -154 0 -45 3 -57 16 -60 14
-2 12 -8 -11 -36 -26 -31 -26 -33 -10 -58 13 -20 14 -28 4 -40 -7 -8 -7 -14
-1 -14 18 0 22 31 6 55 -15 23 -14 26 15 62 30 36 30 38 11 41 -23 4 -26 37
-10 123 7 38 20 63 42 86 24 25 28 33 15 33 -21 0 -20 -4 -1 53 20 60 16 68
-21 45z"/>
<path d="M1864 4421 c-27 -10 -66 -27 -85 -37 l-34 -19 56 -3 57 -3 -14 -46
c-8 -25 -14 -61 -14 -78 0 -21 -12 -48 -35 -79 -38 -48 -38 -54 -2 -34 21 11
21 10 7 -7 -14 -17 -13 -18 5 -11 58 24 134 27 239 11 24 -4 27 -3 16 10 -7 8
-18 15 -25 15 -18 0 -26 26 -20 68 2 20 7 57 10 81 6 53 5 52 34 44 13 -3 20
-11 17 -19 -13 -33 12 -9 42 40 34 57 39 71 21 60 -6 -3 -15 0 -20 7 -8 12
-11 12 -19 -1 -15 -24 -12 -32 11 -25 20 7 20 6 -2 -28 l-23 -34 -27 26 c-26
26 -26 26 -5 32 18 5 15 9 -24 27 -54 26 -98 26 -166 3z m130 -209 c2 -4 1
-14 -4 -22 -7 -11 -11 -11 -24 -1 -9 7 -13 17 -10 22 7 11 31 12 38 1z"/>
<path d="M4463 4096 c-15 -13 -25 -27 -22 -30 3 -3 18 8 34 24 35 36 27 40
-12 6z"/>
<path d="M4504 4088 l-29 -33 33 29 c17 17 32 31 32 33 0 8 -8 1 -36 -29z"/>
<path d="M4426 3973 c-6 -14 -5 -15 5 -6 7 7 10 15 7 18 -3 3 -9 -2 -12 -12z"/>
<path d="M1915 3970 c-3 -5 -1 -10 4 -10 6 0 11 5 11 10 0 6 -2 10 -4 10 -3 0
-8 -4 -11 -10z"/>
<path d="M4200 3920 c0 -13 18 -22 24 -11 3 5 -1 11 -9 15 -8 3 -15 1 -15 -4z"/>
<path d="M3571 3874 c-7 -25 -10 -48 -8 -51 3 -2 10 17 16 43 7 25 10 48 8 51
-3 2 -10 -17 -16 -43z"/>
<path d="M3596 3864 c-10 -31 -15 -58 -13 -61 3 -2 13 21 22 52 21 74 14 82
-9 9z"/>
<path d="M3506 3869 c-9 -28 -36 -158 -35 -171 0 -7 11 30 24 82 13 52 21 97
19 99 -2 2 -6 -2 -8 -10z"/>
<path d="M3617 3825 c-15 -30 -25 -55 -22 -55 7 0 57 101 53 106 -2 2 -16 -21
-31 -51z"/>
<path d="M4491 3844 c0 -11 3 -14 6 -6 3 7 2 16 -1 19 -3 4 -6 -2 -5 -13z"/>
<path d="M4526 3820 c-9 -22 -16 -48 -16 -58 1 -9 9 8 20 38 22 65 20 79 -4
20z"/>
<path d="M1480 3800 c0 -22 5 -40 10 -40 6 0 10 18 10 40 0 22 -4 40 -10 40
-5 0 -10 -18 -10 -40z"/>
<path d="M1863 3790 c0 -30 2 -43 4 -27 2 15 2 39 0 55 -2 15 -4 2 -4 -28z"/>
<path d="M2009 3803 c-5 -16 -14 -39 -19 -53 -26 -72 -30 -107 -15 -144 8 -19
16 -54 17 -77 1 -25 10 -53 24 -73 13 -17 28 -41 33 -53 12 -25 24 -32 15 -8
-7 18 7 20 24 3 6 -6 14 -9 17 -6 3 2 -10 13 -28 23 -38 20 -66 57 -49 63 6 2
8 10 5 18 -7 18 -3 18 34 -1 39 -20 54 -37 63 -78 6 -24 8 -26 9 -9 1 31 -25
79 -50 93 -16 8 -18 13 -9 19 8 5 -3 10 -29 15 -40 7 -47 15 -41 55 3 21 4 22
31 11 33 -12 66 -43 72 -66 4 -19 5 -18 6 2 1 14 -13 34 -38 55 -38 32 -39 35
-20 46 10 7 19 18 19 25 0 15 -41 37 -69 37 -14 0 -17 6 -13 25 5 26 45 65 68
65 20 0 51 -46 59 -87 8 -44 33 -90 53 -98 8 -3 2 9 -12 26 -14 17 -26 36 -26
42 0 31 -23 89 -43 108 -32 30 -58 43 -51 26 3 -8 -2 -17 -11 -20 -12 -5 -14
-1 -9 18 8 34 -4 32 -17 -2z m57 -134 c9 -16 -9 -29 -42 -32 -23 -2 -30 2 -32
21 -3 19 1 22 32 22 19 0 38 -5 42 -11z"/>
<path d="M4330 3816 c0 -8 4 -17 9 -20 5 -4 7 3 4 14 -6 23 -13 26 -13 6z"/>
<path d="M3653 3768 c-21 -29 -49 -69 -62 -88 l-23 -35 25 29 c32 37 109 146
104 146 -3 0 -22 -24 -44 -52z"/>
<path d="M4274 3799 c-4 -8 -3 -9 4 -5 18 11 63 -25 79 -62 16 -39 8 -50 -37
-53 -22 -2 -23 -2 -4 -6 28 -5 38 -40 14 -48 -21 -7 -70 10 -70 24 0 6 8 15
18 20 9 6 12 11 6 11 -18 0 -37 -28 -30 -45 3 -8 12 -15 21 -15 25 0 17 -14
-18 -30 -35 -17 -58 -63 -40 -81 8 -8 17 -8 32 0 30 16 26 8 -14 -32 -19 -19
-35 -40 -35 -46 0 -5 18 9 39 32 35 37 41 40 57 27 16 -14 17 -13 12 8 -4 16
-1 25 13 32 16 9 19 7 19 -11 0 -11 -7 -33 -16 -47 -22 -36 -102 -94 -117 -86
-9 5 -9 3 0 -6 11 -11 17 -10 35 7 13 12 30 23 38 25 24 5 80 81 80 109 0 15
7 46 15 70 16 45 16 75 -4 144 -8 31 -18 44 -43 54 -18 8 -36 16 -40 18 -3 2
-10 -1 -14 -8z m96 -153 c-14 -14 -24 0 -16 21 6 15 8 15 16 3 6 -9 5 -19 0
-24z m-15 -58 c-10 -25 -24 -37 -57 -49 -23 -9 -51 -20 -60 -24 -29 -12 -22
30 8 54 28 22 54 27 54 11 0 -5 5 -10 11 -10 6 0 9 7 5 15 -5 14 18 34 41 35
9 0 9 -8 -2 -32z"/>
<path d="M4482 3785 c0 -16 2 -22 5 -12 2 9 2 23 0 30 -3 6 -5 -1 -5 -18z"/>
<path d="M4234 3768 l-19 -23 23 19 c12 11 22 21 22 23 0 8 -8 2 -26 -19z"/>
<path d="M2165 3770 c-3 -5 1 -10 9 -10 9 0 16 5 16 10 0 6 -4 10 -9 10 -6 0
-13 -4 -16 -10z"/>
<path d="M2205 3749 c-4 -6 -5 -12 -2 -15 2 -3 7 2 10 11 7 17 1 20 -8 4z"/>
<path d="M2561 3744 c0 -11 3 -14 6 -6 3 7 2 16 -1 19 -3 4 -6 -2 -5 -13z"/>
<path d="M3574 3745 c-4 -8 -11 -12 -16 -9 -6 4 -8 1 -6 -7 3 -8 1 -22 -4 -31
-5 -10 -6 -18 -4 -18 3 0 15 18 26 40 11 22 18 40 15 40 -3 0 -8 -7 -11 -15z"/>
<path d="M4121 3744 c0 -11 3 -14 6 -6 3 7 2 16 -1 19 -3 4 -6 -2 -5 -13z"/>
<path d="M4475 3695 c6 -81 -38 -212 -88 -264 -31 -32 -74 -101 -63 -101 2 0
16 20 30 44 14 25 40 54 56 66 17 12 30 29 30 38 0 9 16 39 35 66 19 27 35 59
34 70 -1 15 -4 12 -10 -10 -5 -17 -16 -37 -24 -44 -19 -16 -19 -7 1 31 12 25
13 42 5 97 l-10 67 4 -60z"/>
<path d="M4202 3699 c-6 -25 -21 -59 -34 -75 -22 -29 -22 -29 0 -10 24 21 57
97 50 118 -3 7 -10 -8 -16 -33z"/>
<path d="M4503 3695 c0 -27 2 -38 4 -22 2 15 2 37 0 50 -2 12 -4 0 -4 -28z"/>
<path d="M2570 3716 c0 -18 53 -202 62 -216 8 -13 9 -13 5 0 -3 9 -17 60 -32
115 -25 91 -35 121 -35 101z"/>
<path d="M4122 3685 c0 -16 2 -22 5 -12 2 9 2 23 0 30 -3 6 -5 -1 -5 -18z"/>
<path d="M2210 3600 c-9 -6 -10 -10 -3 -10 6 0 15 5 18 10 8 12 4 12 -15 0z"/>
<path d="M2567 3525 c20 -41 39 -73 41 -71 4 5 -66 146 -73 146 -3 0 12 -34
32 -75z"/>
<path d="M3825 3491 c-3 -12 -9 -19 -13 -17 -4 2 -7 -6 -8 -17 0 -12 -4 -31
-8 -42 -3 -11 5 4 20 33 14 29 24 56 21 58 -3 3 -8 -4 -12 -15z"/>
<path d="M3771 3424 c-12 -19 -16 -32 -11 -29 11 7 43 65 36 65 -2 0 -13 -16
-25 -36z"/>
<path d="M3749 3433 c-13 -16 -12 -17 4 -4 16 13 21 21 13 21 -2 0 -10 -8 -17
-17z"/>
<path d="M3879 3331 c-34 -103 -35 -105 -74 -118 -22 -8 -89 -17 -148 -20
l-108 -6 63 -32 c35 -18 117 -54 183 -80 66 -26 126 -54 133 -63 10 -13 12
-13 12 -1 0 12 2 12 10 -1 7 -11 10 -11 10 -2 0 7 5 10 10 7 6 -3 10 -15 10
-26 0 -10 4 -19 10 -19 5 0 7 6 4 14 -6 14 18 15 48 2 41 -19 37 4 -11 64 -28
35 -49 65 -47 67 2 3 23 -1 45 -7 23 -6 45 -8 50 -5 5 3 12 -1 14 -7 3 -8 6
-6 6 5 1 9 -26 50 -59 90 -54 66 -102 152 -119 217 -6 20 -13 6 -42 -79z"/>
<path d="M3776 3373 c-6 -14 -5 -15 5 -6 7 7 10 15 7 18 -3 3 -9 -2 -12 -12z"/>
<path d="M4272 3360 c0 -14 2 -19 5 -12 2 6 2 18 0 25 -3 6 -5 1 -5 -13z"/>
<path d="M2072 3345 c0 -16 2 -22 5 -12 2 9 2 23 0 30 -3 6 -5 -1 -5 -18z"/>
<path d="M2741 3314 c0 -11 3 -14 6 -6 3 7 2 16 -1 19 -3 4 -6 -2 -5 -13z"/>
<path d="M2294 3223 c-102 -138 -92 -103 -96 -342 l-3 -213 -103 -99 c-56 -54
-97 -99 -91 -99 6 0 43 11 82 25 38 14 74 24 79 23 4 -2 -2 -19 -15 -38 -13
-19 -34 -53 -47 -74 l-24 -39 25 7 c84 24 154 34 166 24 10 -8 13 -6 13 6 0
20 -25 20 -105 2 -33 -8 -61 -13 -63 -11 -4 3 68 115 74 115 6 0 -17 -54 -28
-67 -6 -8 7 -5 33 6 24 11 46 18 50 16 3 -3 4 17 1 43 -3 26 -6 59 -6 74 -1
14 -4 24 -7 22 -14 -8 -19 67 -19 270 l0 211 69 93 c37 51 71 95 74 99 4 3 -4
-26 -18 -65 -52 -148 -52 -174 -1 -231 17 -20 18 -23 4 -18 -10 4 -18 2 -18
-3 0 -6 6 -10 14 -10 8 0 24 -9 37 -21 21 -18 21 -20 4 -14 -43 15 -58 15 -26
1 18 -9 40 -16 48 -16 8 0 28 -11 45 -25 16 -14 35 -25 41 -24 8 0 8 2 -1 6
-10 4 -10 8 -1 19 6 8 15 11 20 8 5 -3 -3 27 -17 66 -15 42 -23 82 -20 95 3
13 0 29 -7 37 -7 7 -26 57 -42 110 -38 124 -50 127 -121 31z m96 -93 c0 -5 -7
-10 -15 -10 -8 0 -15 5 -15 10 0 6 7 10 15 10 8 0 15 -4 15 -10z m30 -130 c0
-5 -2 -10 -4 -10 -3 0 -8 5 -11 10 -3 6 -1 10 4 10 6 0 11 -4 11 -10z m-266
-412 l-29 -31 33 22 32 22 0 -28 c0 -25 -6 -30 -62 -50 -35 -12 -72 -25 -83
-29 -10 -4 12 22 50 59 72 68 112 92 59 35z"/>
<path d="M2752 3275 c0 -11 4 -31 8 -45 6 -20 8 -21 8 -5 0 11 -4 31 -8 45 -6
20 -8 21 -8 5z"/>
<path d="M4693 3254 c-7 -3 -13 -14 -13 -25 0 -12 -7 -19 -20 -19 -11 0 -20
-5 -20 -11 0 -6 -8 -8 -18 -5 -14 5 -22 -2 -33 -26 -14 -32 -16 -33 -79 -34
-91 -1 -98 -2 -82 -13 10 -6 4 -10 -21 -15 -37 -7 -48 -25 -42 -71 1 -14 -2
-25 -8 -25 -5 0 -7 -9 -4 -21 4 -16 -1 -23 -23 -30 -30 -11 -44 -42 -30 -69 6
-11 5 -21 -3 -30 -9 -10 -9 -14 1 -17 10 -4 10 -8 0 -21 -11 -14 -10 -15 6 -9
16 6 17 5 7 -7 -8 -10 -11 -38 -8 -83 4 -63 6 -68 28 -71 13 -1 35 -5 48 -8
23 -5 23 -6 7 -22 -14 -14 -31 -16 -94 -13 -140 7 -217 6 -243 -2 -24 -8 -26
-5 -53 73 -27 77 -28 84 -16 141 7 33 11 62 8 64 -3 3 -11 -26 -18 -64 -13
-70 -13 -70 24 -173 20 -57 39 -126 43 -155 5 -47 2 -57 -26 -101 -17 -27 -31
-53 -31 -57 0 -5 14 13 30 39 31 48 45 53 64 23 13 -20 -9 -45 -68 -76 l-39
-20 -19 25 c-11 14 -48 37 -82 53 -75 34 -107 66 -130 132 -20 54 -16 70 14
51 12 -7 21 -8 25 -2 12 19 26 10 15 -9 -7 -14 -7 -22 0 -26 6 -4 9 -1 8 6 -2
6 3 14 11 17 10 3 11 0 5 -9 -6 -11 -5 -12 8 -2 8 7 18 11 21 8 4 -3 5 -2 2 2
-3 3 1 13 8 21 10 13 9 14 -2 7 -11 -6 -13 -4 -8 9 4 10 7 25 7 34 0 15 2 15
10 2 8 -13 11 -13 19 -1 5 7 13 11 19 7 6 -3 15 6 20 21 7 20 11 23 11 9 1
-16 3 -17 18 -5 14 12 16 12 11 -1 -3 -8 -13 -14 -22 -14 -19 2 -21 -10 -3
-25 19 -15 39 31 30 67 -6 24 -7 25 -14 7 -7 -19 -8 -19 -8 -1 -1 15 -4 16
-16 6 -9 -7 -18 -10 -21 -8 -3 3 6 14 20 25 17 14 22 24 15 34 -7 11 -9 11 -9
-3 0 -10 -5 -17 -10 -15 -6 1 -16 -9 -23 -23 -11 -21 -20 -25 -54 -24 -34 1
-40 -2 -35 -15 5 -14 4 -14 -11 -2 -10 8 -21 11 -24 7 -4 -4 -1 -11 7 -16 8
-6 10 -10 5 -10 -6 0 -16 5 -22 11 -8 8 -13 7 -18 -2 -5 -8 -4 -10 3 -5 7 4
12 1 12 -9 0 -9 -4 -13 -10 -10 -5 3 -10 4 -10 0 0 -3 10 -10 23 -15 21 -8 21
-9 2 -9 -12 -1 -26 4 -32 10 -5 5 -25 18 -44 27 -19 9 -49 39 -66 66 -18 26
-33 44 -33 39 0 -25 81 -118 123 -140 35 -18 31 -23 -31 -37 l-49 -11 19 -79
c31 -133 75 -211 162 -289 l76 -68 0 36 0 36 83 -6 c125 -10 146 -19 229 -90
42 -36 79 -65 82 -65 3 0 -3 24 -14 54 l-18 54 79 -49 c43 -27 79 -46 79 -41
0 4 -17 16 -37 27 -80 43 -166 125 -149 142 8 8 123 -49 210 -105 44 -28 82
-50 83 -48 2 2 -26 62 -62 134 -44 88 -77 141 -102 163 l-37 32 44 -6 c25 -3
56 -9 70 -13 22 -7 21 -4 -14 40 -22 25 -61 64 -88 86 l-49 39 35 16 c19 9 47
28 62 41 30 28 29 28 37 -7 5 -18 2 -31 -8 -39 -19 -16 -19 -31 0 -24 10 4 15
0 15 -14 0 -11 3 -22 8 -24 14 -6 63 -66 66 -79 1 -8 7 -24 14 -36 7 -12 15
-57 17 -100 6 -85 9 -114 19 -155 3 -16 8 -39 11 -52 3 -13 14 -26 25 -29 23
-6 51 -64 45 -93 -27 -138 -28 -144 -14 -160 15 -18 13 -82 -3 -101 -13 -16
-2 -77 17 -93 19 -16 19 -30 0 -30 -18 0 -20 -26 -3 -36 7 -5 8 -3 3 6 -5 9
-4 11 4 6 8 -6 9 -12 2 -20 -6 -7 -8 -16 -4 -19 3 -4 -9 -6 -28 -6 -24 1 -27
3 -11 6 12 2 20 8 17 13 -8 13 -45 -1 -45 -17 0 -8 -5 -11 -10 -8 -9 6 -26
-44 -20 -61 1 -4 -4 -11 -12 -15 -10 -7 -10 -9 2 -9 12 -1 11 -3 -3 -11 -27
-16 -10 -29 41 -30 31 -1 37 -3 17 -6 -53 -6 -76 -13 -71 -22 3 -4 1 -25 -5
-45 -7 -27 -7 -47 1 -69 7 -23 8 -33 0 -35 -7 -3 -7 -9 2 -19 11 -13 9 -18
-10 -31 -25 -16 -30 -52 -7 -52 21 0 19 -9 -7 -31 l-23 -19 23 -6 c29 -8 30
-48 1 -68 -20 -13 -20 -14 -2 -19 16 -4 15 -6 -4 -12 -24 -8 -31 -39 -12 -51
6 -3 9 -24 7 -45 -2 -21 -2 -36 0 -34 3 2 15 -9 29 -26 21 -24 23 -32 13 -44
-11 -13 -10 -14 5 -9 13 5 16 4 11 -5 -13 -20 4 -69 26 -74 12 -4 17 -10 13
-17 -6 -9 -9 -9 -15 0 -5 8 -7 3 -7 -13 1 -14 5 -23 10 -20 6 4 9 -12 6 -33
-1 -11 25 -24 49 -24 24 0 46 -17 48 -35 3 -32 19 -76 33 -92 10 -10 16 -23
14 -28 -2 -6 8 -22 21 -36 18 -20 27 -43 32 -88 4 -35 11 -61 18 -61 11 0 46
-50 46 -65 0 -3 -20 -3 -45 1 -27 4 -45 2 -45 -4 0 -5 -19 -22 -42 -38 -24
-16 -53 -40 -65 -53 -18 -21 -26 -23 -60 -16 -21 4 -47 6 -58 6 -98 -6 -136 6
-161 48 -10 17 -29 35 -43 41 -18 7 -31 24 -41 58 -10 30 -24 51 -38 57 -12 5
-22 13 -22 17 0 5 -6 8 -13 8 -8 0 -22 9 -32 20 -10 11 -23 20 -29 20 -32 1
-125 136 -107 156 9 9 -2 140 -12 150 -3 4 -1 17 4 31 6 18 6 30 -2 39 -9 11
-9 14 1 14 6 0 10 6 7 13 -2 6 -9 11 -14 10 -5 -1 -10 8 -10 19 -2 27 -12 36
-22 19 -6 -9 -11 -10 -15 -2 -4 6 -13 8 -19 4 -7 -4 -21 -9 -32 -10 -10 -2
-22 -9 -26 -15 -4 -7 -14 -8 -25 -3 -11 5 -25 7 -31 6 -7 -1 -13 3 -13 9 0 5
-9 10 -20 10 -11 0 -20 5 -20 10 0 6 3 10 8 10 13 0 44 83 38 103 -3 11 -1 28
5 38 5 10 7 30 3 44 -5 20 -12 25 -36 25 -19 0 -28 4 -26 12 2 6 -10 25 -28
41 -18 15 -36 37 -39 48 -4 11 -17 31 -31 44 -13 13 -24 33 -24 43 0 10 -3 22
-7 26 -5 4 -8 13 -8 19 0 6 -20 21 -44 34 -40 21 -46 22 -54 7 -5 -8 -6 -30
-3 -48 8 -44 -13 -65 -38 -37 -9 10 -34 21 -54 25 -20 3 -50 17 -65 30 -16 14
-34 27 -40 29 -17 5 2 27 26 28 12 0 16 3 10 6 -7 2 -13 13 -13 24 0 14 -7 19
-29 19 -31 0 -34 13 -12 64 14 34 10 62 -7 58 -7 -1 -12 7 -12 18 0 13 5 18
15 14 11 -5 15 1 15 21 0 19 -4 26 -14 22 -8 -3 -26 3 -39 14 -28 22 -63 26
-51 7 5 -9 2 -9 -9 1 -15 12 -17 11 -17 -3 0 -9 -4 -16 -10 -16 -5 0 -10 -17
-10 -39 0 -37 -1 -38 -42 -47 -24 -5 -43 -14 -43 -20 0 -15 -95 -94 -113 -94
-7 0 -10 -4 -7 -10 3 -5 15 -10 25 -10 17 0 18 -2 4 -27 -7 -16 -14 -34 -14
-41 0 -7 -13 -26 -30 -44 -16 -17 -30 -36 -30 -42 0 -6 -15 -18 -32 -26 l-33
-14 28 -10 c19 -7 26 -15 21 -26 -3 -8 -11 -33 -17 -55 -6 -22 -15 -43 -21
-47 -24 -16 -56 -7 -73 19 -9 16 -24 36 -32 46 -8 10 -17 30 -19 45 -6 54 -23
100 -37 106 -16 6 -79 -17 -69 -26 3 -3 -1 -6 -8 -5 -7 0 -22 -1 -33 -2 -17
-1 -18 -3 -5 -11 11 -7 5 -8 -20 -3 -33 6 -34 5 -20 -12 9 -11 10 -16 3 -11
-7 4 -13 3 -13 -3 0 -6 17 -13 38 -17 20 -4 31 -9 25 -11 -10 -4 -10 -10 2
-26 13 -18 13 -23 -1 -38 -12 -14 -13 -22 -4 -38 6 -12 7 -21 1 -21 -5 0 -12
-21 -16 -47 -4 -27 -12 -57 -18 -68 -5 -11 -10 -46 -10 -78 1 -46 -4 -64 -18
-78 -22 -22 -17 -39 9 -39 15 0 15 -2 2 -10 -8 -5 -45 -10 -82 -10 -48 0 -68
-4 -68 -12 0 -17 -50 -41 -51 -25 -3 22 -18 -78 -18 -120 -1 -33 -8 -48 -35
-75 -41 -40 -58 -54 -71 -55 -5 -1 -14 -16 -19 -35 -12 -42 -15 -46 -26 -28
-8 13 -10 13 -10 1 0 -42 -83 -161 -111 -161 -5 0 -9 -7 -9 -15 0 -8 -4 -15
-9 -15 -5 0 -17 -3 -26 -7 -14 -5 -16 -2 -10 15 7 25 8 25 -34 11 -17 -6 -31
-17 -31 -25 0 -11 17 -14 70 -14 61 0 69 -2 63 -17 -5 -12 -3 -14 7 -8 9 5 11
4 6 -3 -4 -7 -22 -12 -41 -12 -39 0 -65 -8 -65 -21 0 -5 920 -9 2210 -9 l2210
0 0 1429 0 1429 -62 6 c-35 3 -138 8 -230 11 -184 6 -306 25 -346 53 -15 11
-56 35 -92 55 -58 31 -71 35 -117 30 -29 -3 -110 2 -180 11 -71 9 -203 20
-294 25 -153 7 -170 10 -213 34 -41 23 -60 26 -149 28 -56 1 -96 4 -89 6 6 3
12 10 12 17 0 22 38 49 63 44 13 -2 29 1 35 9 10 10 9 13 -5 13 -11 0 -5 7 16
18 19 9 35 22 35 27 1 11 -71 17 -91 9z m-400 -659 c31 0 57 -3 57 -6 0 -4
-23 -16 -51 -28 l-50 -22 43 -31 c50 -36 118 -99 118 -110 0 -4 -12 -3 -26 2
-31 12 -104 13 -104 1 0 -4 18 -20 39 -34 53 -35 82 -75 134 -188 l44 -95 -66
44 c-108 73 -231 127 -231 103 0 -5 13 -42 30 -82 16 -40 28 -75 25 -77 -2 -2
-28 18 -57 46 -70 65 -80 70 -184 82 -134 15 -134 15 -134 -21 l0 -30 -61 53
c-63 54 -96 107 -130 205 -20 59 -18 69 6 23 46 -88 123 -133 320 -184 55 -15
121 -37 147 -51 l48 -24 -30 59 c-17 33 -30 63 -30 68 0 12 92 -5 154 -29 27
-10 52 -17 54 -14 7 6 -35 61 -69 89 -16 14 -49 31 -72 37 l-42 11 23 18 c12
10 45 24 72 31 28 7 49 17 47 23 -7 21 -91 56 -136 56 l-46 0 25 20 c14 11 37
22 53 25 37 9 34 25 -5 25 -18 0 -40 5 -48 11 -11 7 -2 8 30 2 25 -4 71 -8
103 -8z m-583 -60 c7 -8 13 -26 14 -40 0 -14 4 -25 9 -25 4 0 7 -5 7 -11 0 -8
-4 -8 -14 1 -8 6 -12 19 -10 28 5 15 4 15 -6 0 -8 -14 -7 -24 6 -45 l16 -28
-21 25 c-23 28 -26 41 -11 56 6 6 6 15 0 24 -8 12 -10 12 -10 -4 0 -19 -1 -19
-20 2 -11 12 -20 24 -20 27 0 12 48 4 60 -10z m100 -146 c14 -8 44 -21 67 -27
41 -12 77 -47 67 -63 -8 -14 -129 36 -173 70 -38 30 -56 51 -30 35 8 -4 9 1 4
17 l-7 24 23 -21 c13 -11 35 -27 49 -35z m737 -1711 c-3 -8 -6 -5 -6 6 -1 11
2 17 5 13 3 -3 4 -12 1 -19z"/>
<path d="M2813 3150 c0 -47 2 -66 4 -42 2 23 2 61 0 85 -2 23 -4 4 -4 -43z"/>
<path d="M2685 3180 c10 -11 20 -20 23 -20 3 0 -3 9 -13 20 -10 11 -20 20 -23
20 -3 0 3 -9 13 -20z"/>
<path d="M2770 3184 c0 -10 5 -26 10 -34 8 -11 9 -7 4 15 -8 37 -14 45 -14 19z"/>
<path d="M2675 3156 c22 -20 49 -41 60 -47 24 -12 -27 33 -70 63 -21 14 -17 9
10 -16z"/>
<path d="M3604 3023 c3 -38 8 -93 12 -123 4 -40 3 -51 -5 -40 -14 19 -14 5 -1
-21 12 -21 32 -27 25 -6 -5 13 29 58 42 56 24 -4 43 3 43 16 0 9 6 12 15 9 10
-4 15 0 15 15 0 38 17 22 34 -31 16 -52 16 -52 11 -11 -3 23 -8 48 -11 56 -4
12 4 12 52 -4 78 -26 91 -23 24 5 -62 26 -226 121 -235 136 -17 28 -25 5 -21
-57z m40 -138 c3 -8 1 -15 -4 -15 -6 0 -10 7 -10 15 0 8 2 15 4 15 2 0 6 -7
10 -15z"/>
<path d="M2742 2888 c-19 -33 -31 -62 -29 -65 3 -3 20 23 37 57 41 80 35 86
-8 8z"/>
<path d="M3540 2928 c0 -24 31 -141 42 -158 10 -16 10 -15 -12 69 -9 35 -9 46
2 52 10 7 8 13 -9 31 -19 18 -23 19 -23 6z"/>
<path d="M2526 2917 c3 -10 9 -15 12 -12 3 3 0 11 -7 18 -10 9 -11 8 -5 -6z"/>
<path d="M2535 2880 c-3 -5 -2 -10 3 -10 6 0 12 -7 15 -14 4 -11 1 -13 -11 -9
-15 6 -15 4 1 -14 14 -16 15 -22 5 -25 -8 -3 1 -13 22 -26 33 -20 69 -32 45
-14 -6 4 -21 31 -35 60 -26 57 -35 68 -45 52z"/>
<path d="M2774 2863 c-5 -10 -21 -36 -34 -57 -13 -22 -19 -37 -14 -33 14 8 75
107 66 107 -4 0 -12 -8 -18 -17z"/>
<path d="M2353 2863 c9 -2 23 -2 30 0 6 3 -1 5 -18 5 -16 0 -22 -2 -12 -5z"/>
<path d="M2500 2836 c0 -2 7 -7 16 -10 8 -3 12 -2 9 4 -6 10 -25 14 -25 6z"/>
<path d="M3841 2816 c15 -13 90 -45 84 -36 -4 7 -22 18 -41 26 -32 13 -52 18
-43 10z"/>
<path d="M2695 2799 c-4 -6 -5 -12 -2 -15 2 -3 7 2 10 11 7 17 1 20 -8 4z"/>
<path d="M3762 2787 c-20 -22 -57 -97 -47 -97 2 0 14 17 25 38 11 20 27 47 36
60 21 28 14 28 -14 -1z"/>
<path d="M2675 2759 c-4 -6 -5 -12 -2 -15 2 -3 7 2 10 11 7 17 1 20 -8 4z"/>
<path d="M2734 2578 l-19 -21 28 18 c28 18 33 25 19 25 -5 0 -17 -10 -28 -22z"/>
<path d="M2748 2534 c-38 -20 -36 -28 2 -9 17 9 30 18 30 20 0 7 -1 6 -32 -11z"/>
<path d="M2733 2494 c-18 -8 -33 -16 -33 -19 0 -5 70 22 79 30 8 9 -14 4 -46
-11z"/>
<path d="M2725 2450 c-13 -6 -15 -9 -5 -9 8 0 22 4 30 9 18 12 2 12 -25 0z"/>
<path d="M2678 2433 c7 -3 16 -2 19 1 4 3 -2 6 -13 5 -11 0 -14 -3 -6 -6z"/>
<path d="M1929 2419 c-1 -8 -1 -17 -1 -20 1 -4 2 -23 4 -43 2 -36 12 -46 22
-23 3 6 3 2 0 -10 -6 -27 12 -31 20 -5 6 18 1 61 -9 70 -2 3 1 12 8 20 10 13
9 14 -1 8 -7 -4 -19 -2 -27 4 -12 10 -15 10 -16 -1z"/>
<path d="M1990 2416 c0 -8 -6 -17 -12 -19 -9 -4 -8 -6 2 -6 10 -1 16 -10 15
-23 0 -13 5 -24 10 -26 6 -1 10 15 10 35 0 21 5 41 10 45 6 4 0 8 -12 8 -13 0
-23 -6 -23 -14z"/>
<path d="M2630 2420 c-8 -5 -10 -10 -5 -10 6 0 17 5 25 10 8 5 11 10 5 10 -5
0 -17 -5 -25 -10z"/>
<path d="M2516 2395 c4 -11 20 -15 53 -14 l46 1 -30 13 c-42 19 -76 19 -69 0z"/>
<path d="M2262 2374 c-1 -6 -39 -21 -84 -33 -95 -26 -164 -54 -191 -79 -11 -9
-37 -44 -58 -77 -25 -40 -52 -69 -79 -84 -22 -12 -40 -24 -40 -27 0 -2 19 -3
43 -3 24 1 32 4 19 6 -23 4 -22 6 15 41 21 20 52 58 70 84 17 26 43 54 57 63
35 23 235 85 241 75 3 -5 -18 -13 -47 -19 -28 -6 -70 -20 -94 -30 -44 -20
-158 -100 -152 -107 2 -2 20 1 39 5 61 16 169 24 169 12 0 -6 -3 -11 -7 -11
-22 -1 -52 -40 -59 -75 l-7 -40 37 33 c20 17 43 32 50 32 7 0 33 14 59 31 26
17 51 28 56 25 5 -4 12 -2 16 4 8 13 62 13 70 1 3 -5 -3 -12 -12 -14 -10 -3
-2 -5 17 -6 20 0 66 7 103 18 52 14 67 15 67 5 0 -7 -16 -18 -35 -25 -37 -14
-50 -35 -14 -24 23 8 23 -1 4 -47 -11 -27 11 -22 34 8 11 15 48 57 81 94 66
75 100 116 100 123 0 2 -51 7 -112 10 -62 4 -126 9 -143 12 -16 3 -24 2 -17
-1 6 -3 12 -12 12 -19 0 -7 -6 -16 -12 -18 -7 -3 -4 -6 6 -6 11 -1 16 -4 13
-8 -4 -3 1 -11 10 -18 24 -18 9 -45 -25 -45 -16 0 -54 -5 -86 -12 -54 -10 -59
-10 -79 11 -16 16 -24 39 -28 84 -3 34 -7 57 -7 51z m317 -194 c-31 -38 -39
-46 -39 -35 0 6 61 75 67 75 2 0 -11 -18 -28 -40z"/>
<path d="M3577 2268 c-22 -54 -16 -60 8 -8 10 22 16 42 13 45 -3 3 -12 -14
-21 -37z"/>
<path d="M3545 2269 c-9 -17 -14 -33 -11 -36 3 -3 10 7 16 22 6 15 13 32 16
36 3 5 3 9 0 9 -3 0 -13 -14 -21 -31z"/>
<path d="M3597 2255 c-24 -50 -20 -58 4 -12 11 22 19 41 17 43 -3 2 -12 -12
-21 -31z"/>
<path d="M2759 2078 c-50 -66 -52 -68 -46 -68 2 0 23 25 46 55 23 30 40 55 37
55 -2 0 -19 -19 -37 -42z"/>
<path d="M4051 2054 c0 -11 3 -14 6 -6 3 7 2 16 -1 19 -3 4 -6 -2 -5 -13z"/>
<path d="M2665 2018 l-40 -43 43 40 c39 36 47 45 39 45 -2 0 -21 -19 -42 -42z"/>
<path d="M4036 2004 c-4 -14 -5 -28 -3 -31 3 -2 8 8 11 23 4 14 5 28 3 31 -3
2 -8 -8 -11 -23z"/>
<path d="M4301 2005 c-1 -24 -66 -117 -75 -108 -3 3 -6 0 -6 -8 -1 -8 -12 -27
-26 -44 -27 -31 -23 -14 5 20 9 10 -4 3 -29 -17 -25 -20 -80 -59 -124 -87 -75
-48 -82 -51 -145 -51 -120 1 -260 26 -428 79 -35 10 -63 16 -63 12 0 -12 163
-109 275 -163 95 -46 117 -53 170 -53 41 0 64 -5 72 -15 18 -23 225 -17 327 9
44 12 83 21 87 21 4 0 -6 -41 -22 -91 -17 -50 -28 -96 -26 -102 1 -5 18 38 36
97 37 117 50 135 26 35 -15 -66 -20 -130 -5 -74 16 60 39 171 44 210 l6 40
-11 -35 c-5 -19 -12 -40 -14 -47 -3 -8 -28 -6 -92 8 -144 32 -142 30 -95 95
42 59 82 131 82 147 0 9 9 37 20 63 12 26 19 55 17 63 -3 11 -5 10 -6 -4z"/>
<path d="M2684 1978 l-19 -23 23 19 c12 11 22 21 22 23 0 8 -8 2 -26 -19z"/>
<path d="M2462 1941 c-71 -51 -90 -73 -27 -31 67 45 100 70 89 69 -5 0 -33
-18 -62 -38z"/>
<path d="M2494 1924 c-18 -14 -18 -15 4 -4 12 6 22 13 22 15 0 8 -5 6 -26 -11z"/>
<path d="M4011 1914 c0 -11 3 -14 6 -6 3 7 2 16 -1 19 -3 4 -6 -2 -5 -13z"/>
<path d="M3996 1864 c-4 -14 -5 -28 -3 -31 3 -2 8 8 11 23 4 14 5 28 3 31 -3
2 -8 -8 -11 -23z"/>
<path d="M3190 1832 c0 -8 -6 -12 -12 -10 -16 6 -33 -11 -42 -40 -4 -12 -11
-22 -16 -22 -5 0 -7 -12 -5 -27 2 -16 4 -34 4 -40 1 -7 8 -13 16 -13 8 0 15
-4 15 -10 0 -14 27 -12 33 3 4 9 8 9 15 -1 5 -8 20 -12 33 -10 23 3 24 7 27
87 2 73 1 83 -13 77 -9 -3 -13 -2 -10 4 3 6 -1 10 -9 10 -9 0 -16 -6 -16 -12
0 -9 -4 -8 -10 2 -7 11 -10 12 -10 2z"/>
<path d="M4300 1560 c-23 -42 -80 -183 -77 -187 3 -2 10 11 17 29 8 18 25 58
40 88 32 68 41 90 35 90 -2 0 -9 -9 -15 -20z"/>
<path d="M3331 1504 c0 -11 3 -14 6 -6 3 7 2 16 -1 19 -3 4 -6 -2 -5 -13z"/>
<path d="M4201 1444 c-28 -74 -21 -80 8 -8 13 30 21 57 19 60 -3 2 -15 -21
-27 -52z"/>
<path d="M4462 1180 c0 -14 2 -19 5 -12 2 6 2 18 0 25 -3 6 -5 1 -5 -13z"/>
<path d="M2314 1018 c-12 -19 -14 -38 -4 -38 10 0 24 39 17 46 -3 3 -9 -1 -13
-8z"/>
<path d="M1940 9 c0 -5 5 -7 10 -4 6 3 10 8 10 11 0 2 -4 4 -10 4 -5 0 -10 -5
-10 -11z"/>
</g>
</svg>
