<?xml version="1.0" standalone="no"?>
<!DOCTYPE svg PUBLIC "-//W3C//DTD SVG 20010904//EN"
 "http://www.w3.org/TR/2001/REC-SVG-20010904/DTD/svg10.dtd">
<svg version="1.0" xmlns="http://www.w3.org/2000/svg"
 width="1012.000000pt" height="1012.000000pt" viewBox="0 0 1012.000000 1012.000000"
 preserveAspectRatio="xMidYMid meet">

<g transform="translate(0.000000,1012.000000) scale(0.100000,-0.100000)"
fill="#000000" stroke="none">
<path d="M440 8140 l0 -1540 1540 0 1540 0 0 1540 0 1540 -1540 0 -1540 0 0
-1540z m2640 0 l0 -1100 -1100 0 -1100 0 0 1100 0 1100 1100 0 1100 0 0 -1100z"/>
<path d="M1320 8140 l0 -660 660 0 660 0 0 660 0 660 -660 0 -660 0 0 -660z"/>
<path d="M3960 9460 l0 -220 220 0 220 0 0 -220 0 -220 -220 0 -220 0 0 -660
0 -660 220 0 220 0 0 -220 0 -220 -220 0 -220 0 0 -220 0 -220 220 0 220 0 0
220 0 220 220 0 220 0 0 -220 0 -220 220 0 220 0 0 -220 0 -220 -220 0 -220 0
0 -440 0 -440 -220 0 -220 0 0 440 0 440 -220 0 -220 0 0 -440 0 -440 220 0
220 0 0 -220 0 -220 440 0 440 0 0 -880 0 -880 220 0 220 0 0 -660 0 -660
-220 0 -220 0 0 220 0 220 -220 0 -220 0 0 -220 0 -220 -220 0 -220 0 0 220 0
220 -220 0 -220 0 0 -880 0 -880 440 0 440 0 0 220 0 220 220 0 220 0 0 -220
0 -220 220 0 220 0 0 220 0 220 220 0 220 0 0 -220 0 -220 440 0 440 0 0 440
0 440 220 0 220 0 0 -220 0 -220 220 0 220 0 0 -220 0 -220 440 0 440 0 0 220
0 220 -220 0 -220 0 0 220 0 220 220 0 220 0 0 220 0 220 -220 0 -220 0 0
-220 0 -220 -440 0 -440 0 0 220 0 220 -220 0 -220 0 0 220 0 220 440 0 440 0
0 220 0 220 220 0 220 0 0 -220 0 -220 220 0 220 0 0 220 0 220 220 0 220 0 0
-220 0 -220 220 0 220 0 0 220 0 220 -220 0 -220 0 0 220 0 220 -660 0 -660 0
0 440 0 440 220 0 220 0 0 660 0 660 220 0 220 0 0 -440 0 -440 220 0 220 0 0
-220 0 -220 220 0 220 0 0 220 0 220 -220 0 -220 0 0 220 0 220 220 0 220 0 0
660 0 660 -220 0 -220 0 0 -220 0 -220 -220 0 -220 0 0 220 0 220 -660 0 -660
0 0 -220 0 -220 -220 0 -220 0 0 -660 0 -660 -220 0 -220 0 0 -220 0 -220
-220 0 -220 0 0 220 0 220 -220 0 -220 0 0 440 0 440 -220 0 -220 0 0 220 0
220 440 0 440 0 0 -440 0 -440 220 0 220 0 0 660 0 660 -220 0 -220 0 0 440 0
440 -220 0 -220 0 0 220 0 220 220 0 220 0 0 660 0 660 -440 0 -440 0 0 440 0
440 -220 0 -220 0 0 -220 0 -220 -220 0 -220 0 0 220 0 220 -220 0 -220 0 0
-220z m1760 -1320 l0 -220 -220 0 -220 0 0 220 0 220 220 0 220 0 0 -220z m0
-1320 l0 -220 -220 0 -220 0 0 220 0 220 220 0 220 0 0 -220z m2200 -1980 l0
-440 -220 0 -220 0 0 -880 0 -880 -220 0 -220 0 0 -220 0 -220 -220 0 -220 0
0 -220 0 -220 -220 0 -220 0 0 440 0 440 220 0 220 0 0 220 0 220 -440 0 -440
0 0 220 0 220 440 0 440 0 0 220 0 220 220 0 220 0 0 220 0 220 220 0 220 0 0
440 0 440 220 0 220 0 0 -440z m-3080 -3740 l0 -220 -220 0 -220 0 0 220 0
220 220 0 220 0 0 -220z m880 0 l0 -220 -220 0 -220 0 0 220 0 220 220 0 220
0 0 -220z"/>
<path d="M6600 3300 l0 -220 220 0 220 0 0 220 0 220 -220 0 -220 0 0 -220z"/>
<path d="M6600 8140 l0 -1540 1540 0 1540 0 0 1540 0 1540 -1540 0 -1540 0 0
-1540z m2640 0 l0 -1100 -1100 0 -1100 0 0 1100 0 1100 1100 0 1100 0 0 -1100z"/>
<path d="M7480 8140 l0 -660 660 0 660 0 0 660 0 660 -660 0 -660 0 0 -660z"/>
<path d="M440 5500 l0 -660 220 0 220 0 0 -220 0 -220 880 0 880 0 0 -220 0
-220 660 0 660 0 0 -220 0 -220 440 0 440 0 0 440 0 440 -440 0 -440 0 0 220
0 220 -220 0 -220 0 0 220 0 220 -220 0 -220 0 0 220 0 220 220 0 220 0 0 220
0 220 -220 0 -220 0 0 -220 0 -220 -440 0 -440 0 0 220 0 220 -880 0 -880 0 0
-660z m880 0 l0 -220 660 0 660 0 0 -220 0 -220 -880 0 -880 0 0 440 0 440
220 0 220 0 0 -220z m2200 -880 l0 -220 -220 0 -220 0 0 220 0 220 220 0 220
0 0 -220z"/>
<path d="M440 1980 l0 -1540 1540 0 1540 0 0 1540 0 1540 -1540 0 -1540 0 0
-1540z m2640 0 l0 -1100 -1100 0 -1100 0 0 1100 0 1100 1100 0 1100 0 0 -1100z"/>
<path d="M1320 1980 l0 -660 660 0 660 0 0 660 0 660 -660 0 -660 0 0 -660z"/>
<path d="M4400 2860 l0 -220 220 0 220 0 0 220 0 220 -220 0 -220 0 0 -220z"/>
<path d="M9240 1100 l0 -220 220 0 220 0 0 220 0 220 -220 0 -220 0 0 -220z"/>
</g>
</svg>
